<?xml version="1.0" encoding="utf-8"?>
<!-- Generator: Adobe Illustrator 15.0.0, SVG Export Plug-In . SVG Version: 6.00 Build 0)  -->
<!DOCTYPE svg PUBLIC "-//W3C//DTD SVG 1.1//EN" "http://www.w3.org/Graphics/SVG/1.1/DTD/svg11.dtd">
<svg version="1.1" id="Layer_1" xmlns="http://www.w3.org/2000/svg" xmlns:xlink="http://www.w3.org/1999/xlink" x="0px" y="0px"
	 width="512px" height="512px" viewBox="144 44 512 512" enable-background="new 144 44 512 512" xml:space="preserve">
<title></title>
<path d="M656,531.728L487.041,362.769c29.298-34.885,45.266-78.52,45.266-124.615c0-51.86-20.196-100.617-56.866-137.287
	C438.77,64.195,390.013,44,338.153,44c-51.86,0-100.617,20.195-137.287,56.866C164.195,137.537,144,186.293,144,238.153
	c0,51.86,20.195,100.616,56.866,137.287c36.67,36.67,85.427,56.866,137.287,56.866c46.095,0,89.73-15.968,124.615-45.266
	L631.728,556L656,531.728z M338.153,397.98c-88.129,0-159.828-71.698-159.828-159.827c0-88.129,71.699-159.828,159.828-159.828
	c88.129,0,159.827,71.699,159.827,159.828C497.98,326.282,426.282,397.98,338.153,397.98z"/>
</svg>
