<?xml version="1.0" encoding="utf-8"?>
<!-- Generator: Adobe Illustrator 15.0.0, SVG Export Plug-In . SVG Version: 6.00 Build 0)  -->
<!DOCTYPE svg PUBLIC "-//W3C//DTD SVG 1.1//EN" "http://www.w3.org/Graphics/SVG/1.1/DTD/svg11.dtd">
<svg version="1.1" id="Layer_1" xmlns="http://www.w3.org/2000/svg" xmlns:xlink="http://www.w3.org/1999/xlink" x="0px" y="0px"
	 width="512px" height="512px" viewBox="144 44 512 512" enable-background="new 144 44 512 512" xml:space="preserve">
<title></title>
<g id="_24-Email">
	<path d="M649.42,223.067l-73.435-53.755v-45.276c0-8.836-7.162-15.999-15.998-15.999h-67.515l-83.033-60.955
		c-5.622-4.108-13.257-4.108-18.879,0l-83.033,60.955h-67.515c-8.836,0-15.999,7.163-15.999,15.999v45.276l-73.434,53.755
		c-4.135,3.021-6.573,7.839-6.56,12.959v271.978c0,26.508,21.488,47.996,47.996,47.996l0,0h415.967
		c26.508,0,47.996-21.488,47.996-47.996l0,0V236.026C655.992,230.906,653.555,226.088,649.42,223.067z M575.985,208.988
		l35.197,25.758l-35.197,20.958V208.988z M400,79.879l38.396,28.158h-76.794L400,79.879z M256.012,140.034h287.977v134.869
		L400,361.296l-143.988-86.393V140.034z M224.014,208.988v46.876l-35.196-21.118L224.014,208.988z M623.981,508.004
		c0,8.836-7.162,15.999-15.998,15.999H192.017c-8.836,0-15.999-7.163-15.999-15.999v-243.66l215.823,129.43
		c4.949,2.858,11.049,2.858,15.999,0l216.142-129.43V508.004z"/>
</g>
</svg>
