<?xml version="1.0" encoding="utf-8"?>
<!-- Generator: Adobe Illustrator 15.0.0, SVG Export Plug-In . SVG Version: 6.00 Build 0)  -->
<!DOCTYPE svg PUBLIC "-//W3C//DTD SVG 1.1//EN" "http://www.w3.org/Graphics/SVG/1.1/DTD/svg11.dtd">
<svg version="1.1" id="Layer_1" xmlns="http://www.w3.org/2000/svg" xmlns:xlink="http://www.w3.org/1999/xlink" x="0px" y="0px"
	 width="512px" height="512px" viewBox="0 0 512 512" enable-background="new 0 0 512 512" xml:space="preserve">
<g>
	<path d="M366.75,264c57.346,0,104,46.653,104,104c0,57.346-46.654,104-104,104s-104-46.654-104-104
		C262.75,310.654,309.404,264,366.75,264 M366.75,224c-79.529,0-144,64.471-144,144c0,79.528,64.471,144,144,144s144-64.472,144-144
		C510.75,288.471,446.279,224,366.75,224L366.75,224z"/>
</g>
<path d="M414.5,403h-47.75c-11.046,0-20-8.954-20-20v-62.5c0-11.046,8.954-20,20-20s20,8.954,20,20V363h27.75
	c11.046,0,20,8.954,20,20S425.546,403,414.5,403z"/>
<path d="M127.5,100c-11.046,0-20-8.954-20-20V20c0-11.046,8.954-20,20-20s20,8.954,20,20v60C147.5,91.046,138.546,100,127.5,100z"/>
<path d="M290,100c-11.046,0-20-8.954-20-20V20c0-11.046,8.954-20,20-20s20,8.954,20,20v60C310,91.046,301.046,100,290,100z"/>
<path d="M354.5,32.5h-27v40h27c11.027,0,20,8.972,20,20v85h40v-85C414.5,59.363,387.637,32.5,354.5,32.5z"/>
<g>
	<path d="M41,419.5v-327c0-11.028,8.972-20,20-20h29v-40H61c-33.137,0-60,26.862-60,60v327c0,33.137,26.863,60,60,60h131.5v-40H61
		C49.972,439.5,41,430.529,41,419.5z"/>
	<rect x="165" y="32.5" width="87.5" height="40"/>
</g>
<path d="M276,197.5H84.5c-11.046,0-20-8.954-20-20s8.954-20,20-20H276c11.046,0,20,8.954,20,20S287.046,197.5,276,197.5z"/>
<path d="M211.75,293.5H84.5c-11.046,0-20-8.954-20-20s8.954-20,20-20h127.25c11.046,0,20,8.954,20,20S222.796,293.5,211.75,293.5z"
	/>
<path d="M148.125,388H84.5c-11.046,0-20-8.954-20-20c0-11.047,8.954-20,20-20h63.625c11.046,0,20,8.953,20,20
	C168.125,379.046,159.171,388,148.125,388z"/>
</svg>
