<?xml version="1.0" encoding="utf-8"?>
<!-- Generator: Adobe Illustrator 15.0.0, SVG Export Plug-In . SVG Version: 6.00 Build 0)  -->
<!DOCTYPE svg PUBLIC "-//W3C//DTD SVG 1.1//EN" "http://www.w3.org/Graphics/SVG/1.1/DTD/svg11.dtd">
<svg version="1.1" id="Layer_1" xmlns="http://www.w3.org/2000/svg" xmlns:xlink="http://www.w3.org/1999/xlink" x="0px" y="0px"
	 width="512px" height="512px" viewBox="144 44 512 512" enable-background="new 144 44 512 512" xml:space="preserve">
<title></title>
<path d="M581.02,118.98C532.667,70.628,468.38,44,400,44s-132.667,26.628-181.02,74.98C170.628,167.333,144,231.62,144,300
	s26.628,132.667,74.98,181.02C267.333,529.372,331.62,556,400,556s132.667-26.628,181.02-74.98S656,368.38,656,300
	S629.372,167.333,581.02,118.98z M400,77.992c51.042,0,98.107,17.325,135.649,46.389L224.381,435.649
	c-29.064-37.542-46.389-84.607-46.389-135.649C177.992,177.584,277.584,77.992,400,77.992z M400,522.008
	c-59.151,0-112.971-23.256-152.804-61.102l313.71-313.71c37.846,39.833,61.102,93.652,61.102,152.804
	C622.008,422.416,522.416,522.008,400,522.008z"/>
</svg>
