<?xml version="1.0" encoding="utf-8"?>
<!-- Generator: Adobe Illustrator 15.0.0, SVG Export Plug-In . SVG Version: 6.00 Build 0)  -->
<!DOCTYPE svg PUBLIC "-//W3C//DTD SVG 1.1//EN" "http://www.w3.org/Graphics/SVG/1.1/DTD/svg11.dtd">
<svg version="1.1" id="Layer_1" xmlns="http://www.w3.org/2000/svg" xmlns:xlink="http://www.w3.org/1999/xlink" x="0px" y="0px"
	 width="512px" height="512px" viewBox="0 0 512 512" enable-background="new 0 0 512 512" xml:space="preserve">
<title></title>
<g>
	<path d="M256,0C149.722,0,63.259,86.463,63.259,192.741c0,62.908,27.721,135.001,82.393,214.276
		c40.047,58.068,79.59,97.818,81.254,99.481c3.641,3.641,8.449,5.501,13.285,5.501c3.943,0,7.905-1.237,11.263-3.756
		c2.005-1.504,49.648-37.467,97.879-93.736c28.544-33.302,51.348-66.847,67.774-99.7c20.991-41.982,31.635-83.052,31.635-122.066
		C448.741,86.463,362.278,0,256,0z M321.304,389.491c-30.976,36.23-62.313,64.031-79.356,78.232
		c-35.557-38.906-141.129-163.807-141.129-274.982c0-85.567,69.614-155.181,155.182-155.181s155.182,69.614,155.182,155.181
		C411.182,268.472,362.306,341.535,321.304,389.491z"/>
	<path d="M256,94.888c-45.236,0-82.039,36.802-82.039,82.039c0,45.236,36.802,82.038,82.039,82.038s82.039-36.802,82.039-82.038
		C338.039,131.69,301.236,94.888,256,94.888z M256,221.405c-24.525,0-44.479-19.953-44.479-44.479
		c0-24.526,19.953-44.479,44.479-44.479c24.526,0,44.479,19.953,44.479,44.479C300.479,201.452,280.526,221.405,256,221.405z"/>
</g>
</svg>
