<?xml version="1.0" encoding="utf-8"?>
<!-- Generator: Adobe Illustrator 15.0.0, SVG Export Plug-In . SVG Version: 6.00 Build 0)  -->
<!DOCTYPE svg PUBLIC "-//W3C//DTD SVG 1.1//EN" "http://www.w3.org/Graphics/SVG/1.1/DTD/svg11.dtd">
<svg version="1.1" id="Layer_1" xmlns="http://www.w3.org/2000/svg" xmlns:xlink="http://www.w3.org/1999/xlink" x="0px" y="0px"
	 width="512px" height="512px" viewBox="144 44 512 512" enable-background="new 144 44 512 512" xml:space="preserve">
<title></title>
<path d="M649.621,413.666l-73.289-58.631V251.668c0-91.496-70.051-166.93-159.336-175.509V44.531h-33.992v31.627
	c-89.285,8.579-159.336,84.013-159.336,175.509v103.367l-73.289,58.631c-4.032,3.226-6.379,8.109-6.379,13.271v47.801
	c0,9.387,7.609,16.996,16.996,16.996h160.08c7.827,36.38,40.239,63.734,78.924,63.734s71.097-27.354,78.925-63.734h160.079
	c9.387,0,16.996-7.609,16.996-16.996v-47.801C656,421.775,653.653,416.892,649.621,413.666z M400,521.478
	c-19.777,0-36.711-12.354-43.526-29.743h87.052C436.711,509.124,419.776,521.478,400,521.478z M622.008,457.743H177.992v-22.637
	l68.634-54.907h248.976v-33.992H257.66v-94.539c0-78.487,63.854-142.34,142.34-142.34c78.486,0,142.34,63.854,142.34,142.34v111.535
	c0,5.163,2.348,10.047,6.379,13.271l73.289,58.632V457.743z"/>
</svg>
