<?xml version="1.0" encoding="utf-8"?>
<!-- Generator: Adobe Illustrator 15.0.0, SVG Export Plug-In . SVG Version: 6.00 Build 0)  -->
<!DOCTYPE svg PUBLIC "-//W3C//DTD SVG 1.1//EN" "http://www.w3.org/Graphics/SVG/1.1/DTD/svg11.dtd">
<svg version="1.1" id="Layer_1" xmlns="http://www.w3.org/2000/svg" xmlns:xlink="http://www.w3.org/1999/xlink" x="0px" y="0px"
	 width="512px" height="512px" viewBox="144 44 512 512" enable-background="new 144 44 512 512" xml:space="preserve">
<title></title>
<g>
	<path d="M279.416,350.7c29.017-30.746,68.271-48.352,110.529-49.574c42.26-1.224,82.464,14.085,113.21,43.102l23.331-24.721
		c-18.229-17.205-39.2-30.43-61.858-39.301c35.148-22.963,58.425-62.649,58.425-107.675C523.053,101.659,465.395,44,394.522,44
		s-128.531,57.659-128.531,128.531c0,45.022,23.273,84.705,58.416,107.669c-26.129,10.207-49.887,26.163-69.712,47.169
		c-33.816,35.832-52.439,82.698-52.438,131.967v79.668c0,9.387,7.609,16.996,16.996,16.996h159.336v-33.992H236.248v-62.672
		C236.247,418.777,251.578,380.196,279.416,350.7z M299.982,172.531c0-52.129,42.411-94.54,94.54-94.54s94.539,42.41,94.539,94.54
		c0,52.129-42.41,94.539-94.539,94.539S299.982,224.66,299.982,172.531z"/>
	<path d="M597.743,526.986l-55.748-55.749c8.174-12.618,12.925-27.648,12.925-43.769c0-44.515-36.216-80.73-80.729-80.73
		c-44.515,0-80.73,36.216-80.73,80.73s36.216,80.73,80.73,80.73c16.12,0,31.149-4.752,43.768-12.926l55.749,55.749L597.743,526.986z
		 M474.19,474.207c-25.772,0-46.739-20.967-46.739-46.738s20.967-46.738,46.739-46.738c25.771,0,46.738,20.967,46.738,46.738
		S499.962,474.207,474.19,474.207z"/>
</g>
</svg>
