<?xml version="1.0" encoding="utf-8"?>
<!-- Generator: Adobe Illustrator 15.0.0, SVG Export Plug-In . SVG Version: 6.00 Build 0)  -->
<!DOCTYPE svg PUBLIC "-//W3C//DTD SVG 1.1//EN" "http://www.w3.org/Graphics/SVG/1.1/DTD/svg11.dtd">
<svg version="1.1" id="Layer_1" xmlns="http://www.w3.org/2000/svg" xmlns:xlink="http://www.w3.org/1999/xlink" x="0px" y="0px"
	 width="512px" height="512px" viewBox="0 0 512 512" enable-background="new 0 0 512 512" xml:space="preserve">
<g>
	<path d="M354.742,45.715H157.257C71.315,45.715,0,118.857,0,210.286c0,10.972,7.314,18.286,18.286,18.286h98.742
		c32.914,0,58.515-27.43,58.515-60.344c0-5.485,0-12.8,20.114-12.8h120.687c20.113,0,20.113,7.314,20.113,12.8
		c0,32.914,25.601,60.344,58.515,60.344h98.743c10.971,0,18.285-7.314,18.285-18.286C512,118.857,440.687,45.715,354.742,45.715z"/>
	<path d="M394.972,265.144c-43.886,0-82.286-31.086-93.258-73.143h-95.085c-10.972,42.057-47.543,73.143-93.258,73.143H95.085
		c-20.114,43.885-40.228,98.742-40.228,146.285c0,10.972,7.313,18.285,18.286,18.285h36.57V448c0,10.972,7.314,18.285,18.286,18.285
		s18.285-7.313,18.285-18.285v-18.286h219.43V448c0,10.972,7.313,18.285,18.285,18.285s18.286-7.313,18.286-18.285v-18.286h36.571
		c10.971,0,18.286-7.313,18.286-18.285c0-47.543-20.114-102.4-42.058-146.285H394.972z M256,374.856
		c-40.229,0-73.144-32.914-73.144-73.142c0-40.229,32.915-73.143,73.144-73.143s73.143,32.914,73.143,73.143
		C329.143,341.942,296.229,374.856,256,374.856z"/>
</g>
</svg>
