<?xml version="1.0" encoding="utf-8"?>
<!-- Generator: Adobe Illustrator 15.0.0, SVG Export Plug-In . SVG Version: 6.00 Build 0)  -->
<!DOCTYPE svg PUBLIC "-//W3C//DTD SVG 1.1//EN" "http://www.w3.org/Graphics/SVG/1.1/DTD/svg11.dtd">
<svg version="1.1" id="Layer_1" xmlns="http://www.w3.org/2000/svg" xmlns:xlink="http://www.w3.org/1999/xlink" x="0px" y="0px"
	 width="512px" height="512px" viewBox="0 0 512 512" enable-background="new 0 0 512 512" xml:space="preserve">
<title></title>
<g>
	<path d="M502.627,9.372c-3.392-3.393-8.092-5.158-12.871-4.834L299.313,17.282c-4.019,0.269-7.803,1.987-10.65,4.834L9.372,301.408
		c-3.119,3.119-4.872,7.35-4.872,11.762s1.752,8.643,4.872,11.761L187.07,502.628c3.249,3.248,7.505,4.872,11.762,4.872
		c4.256,0,8.513-1.624,11.762-4.872l279.29-279.291c2.85-2.848,4.565-6.632,4.835-10.651l12.744-190.441
		C507.783,17.458,506.02,12.765,502.627,9.372z M461.943,204.231L198.832,467.344L44.657,313.17L307.768,50.058L473,39
		L461.943,204.231z"/>
	<circle cx="390.124" cy="121.838" r="29.15"/>
</g>
</svg>
