<?xml version="1.0" encoding="utf-8"?>
<!-- Generator: Adobe Illustrator 15.0.0, SVG Export Plug-In . SVG Version: 6.00 Build 0)  -->
<!DOCTYPE svg PUBLIC "-//W3C//DTD SVG 1.1//EN" "http://www.w3.org/Graphics/SVG/1.1/DTD/svg11.dtd">
<svg version="1.1" id="Layer_1" xmlns="http://www.w3.org/2000/svg" xmlns:xlink="http://www.w3.org/1999/xlink" x="0px" y="0px"
	 width="512px" height="512px" viewBox="0 0 512 512" enable-background="new 0 0 512 512" xml:space="preserve">
<title></title>
<path d="M495.003,95.602H257.062V16.996C257.062,7.61,249.454,0,240.065,0H16.996C7.609,0,0,7.61,0,16.996v95.602v350.538
	c0,9.388,7.609,16.996,16.996,16.996h478.008c9.388,0,16.996-7.609,16.996-16.996V112.597
	C511.999,103.211,504.39,95.602,495.003,95.602z M223.069,33.991v61.61H33.991v-61.61H223.069z M478.007,446.139H33.991V129.593
	h444.016V446.139z"/>
<path d="M400.031,305.824c0.199-0.243,0.373-0.499,0.561-0.749c0.203-0.273,0.414-0.539,0.604-0.823
	c0.193-0.289,0.362-0.591,0.539-0.888c0.157-0.264,0.322-0.521,0.468-0.791c0.16-0.3,0.296-0.607,0.439-0.913
	c0.136-0.286,0.278-0.568,0.4-0.862s0.22-0.595,0.327-0.894c0.114-0.317,0.235-0.631,0.334-0.955
	c0.089-0.295,0.154-0.596,0.229-0.895c0.085-0.334,0.178-0.664,0.246-1.005c0.067-0.341,0.106-0.685,0.156-1.027
	c0.044-0.303,0.101-0.601,0.131-0.906c0.062-0.627,0.093-1.255,0.096-1.884c0-0.029,0.004-0.059,0.004-0.088
	s-0.004-0.059-0.004-0.088c-0.003-0.629-0.034-1.257-0.096-1.884c-0.03-0.306-0.087-0.604-0.131-0.906
	c-0.05-0.343-0.089-0.687-0.156-1.027c-0.068-0.341-0.161-0.671-0.246-1.005c-0.075-0.299-0.141-0.6-0.229-0.895
	c-0.099-0.324-0.22-0.638-0.334-0.955c-0.107-0.299-0.205-0.6-0.327-0.894s-0.265-0.576-0.4-0.862
	c-0.144-0.306-0.279-0.613-0.439-0.913c-0.146-0.271-0.311-0.527-0.468-0.791c-0.177-0.297-0.346-0.599-0.539-0.888
	c-0.19-0.284-0.401-0.55-0.604-0.823c-0.188-0.25-0.361-0.506-0.561-0.749c-0.379-0.461-0.781-0.9-1.198-1.325
	c-0.044-0.045-0.08-0.094-0.124-0.138l-70.711-70.71c-7.811-7.811-20.475-7.811-28.285,0c-7.81,7.811-7.81,20.474,0,28.284
	l36.569,36.569H139.5c-11.046,0-20,8.954-20,20s8.954,20,20,20h196.782l-36.569,36.568c-7.81,7.811-7.81,20.475,0,28.285
	c3.905,3.904,9.024,5.857,14.143,5.857s10.237-1.953,14.143-5.857l70.711-70.711c0.044-0.044,0.08-0.093,0.124-0.138
	C399.25,306.725,399.652,306.285,400.031,305.824z"/>
</svg>
