<?xml version="1.0" encoding="utf-8"?>
<!-- Generator: Adobe Illustrator 15.0.0, SVG Export Plug-In . SVG Version: 6.00 Build 0)  -->
<!DOCTYPE svg PUBLIC "-//W3C//DTD SVG 1.1//EN" "http://www.w3.org/Graphics/SVG/1.1/DTD/svg11.dtd">
<svg version="1.1" id="Layer_1" xmlns="http://www.w3.org/2000/svg" xmlns:xlink="http://www.w3.org/1999/xlink" x="0px" y="0px"
	 width="512px" height="512px" viewBox="144 44 512 512" enable-background="new 144 44 512 512" xml:space="preserve">
<g>
	<path d="M400,412.423c4.334,0,8.127-2.709,9.752-6.501c3.251-5.96,71.518-157.122,71.518-280.652C481.27,80.301,444.97,44,400,44
		c-44.969,0-81.27,36.301-81.27,81.27c0,123.53,68.267,274.692,71.518,280.652C391.873,409.714,395.666,412.423,400,412.423z"/>
	<path d="M400,436.805c-33.05,0-59.598,26.548-59.598,59.598S366.95,556,400,556s59.598-26.548,59.598-59.598
		S433.05,436.805,400,436.805z"/>
</g>
</svg>
