<?xml version="1.0" encoding="utf-8"?>
<!-- Generator: Adobe Illustrator 15.0.0, SVG Export Plug-In . SVG Version: 6.00 Build 0)  -->
<!DOCTYPE svg PUBLIC "-//W3C//DTD SVG 1.1//EN" "http://www.w3.org/Graphics/SVG/1.1/DTD/svg11.dtd">
<svg version="1.1" id="Layer_1" xmlns:serif="http://www.serif.com/"
	 xmlns="http://www.w3.org/2000/svg" xmlns:xlink="http://www.w3.org/1999/xlink" x="0px" y="0px" width="512px" height="512px"
	 viewBox="41.64 164.945 512 512" enable-background="new 41.64 164.945 512 512" xml:space="preserve">
<g>
	<path d="M477.951,239.698c-48.123-48.178-112.159-74.726-180.314-74.753c-140.493,0-254.841,114.339-254.898,254.882
		c-0.019,44.762,11.747,88.827,34.024,127.43l1.286,2.228L43.154,676.945l130.429-34.215l2.149,1.173
		c37.183,20.282,79.304,31.009,121.807,31.021h0.106c140.494,0,254.839-114.345,254.896-254.895
		C552.566,351.923,526.077,287.88,477.951,239.698z M297.642,643.169h-0.09c-40.04-0.017-79.316-10.774-113.584-31.11l-5.708-3.386
		l-89.96,23.6l24.025-87.76l-3.716-5.916c-22.34-35.531-34.14-76.598-34.122-118.759c0.049-123.036,100.195-223.132,223.242-223.132
		c59.605,0.021,115.634,23.262,157.767,65.443c42.131,42.177,65.32,98.243,65.298,157.869
		C520.741,543.063,420.637,643.169,297.642,643.169z"/>
	<path d="M347.317,321.232c-15.326-11.627-32.678-15.678-54.521-15.678c-16.647,0-30.917,3.347-42.102,11.01
		c-16.56,11.273-24.398,30.387-24.398,60.334h42.895c0-7.927-0.793-16.647,3.875-24.046c4.668-7.399,11.187-13.035,22.373-13.035
		c11.362,0,17.263,3.258,22.725,10.041c4.668,5.814,6.43,12.771,6.43,20.082c0,6.342-3.171,12.243-7.047,17.528
		c-2.113,3.083-4.845,5.902-8.367,8.544c0,0-23.077,13.74-31.269,26.776c-6.077,9.688-8.191,21.756-8.719,36.377
		c-0.088,1.057,0.352,3.171,3.964,3.171c3.611,0,31.179,0,34.439,0c3.259,0,3.876-2.378,3.964-3.436
		c0.176-5.373,0.881-13.387,1.849-16.471c1.85-5.813,5.374-10.922,11.01-15.238l11.539-7.927
		c10.394-8.103,18.672-14.797,22.372-19.994c6.254-8.543,10.658-19.113,10.658-31.708
		C368.985,347.127,361.497,331.978,347.317,321.232z"/>
	<path d="M289.801,484.62c-14.444-0.44-26.424,9.512-26.865,25.191c-0.44,15.766,10.923,26.07,25.367,26.511
		c15.063,0.441,26.689-9.248,27.129-24.926C315.96,495.719,304.95,485.061,289.801,484.62z"/>
</g>
</svg>
