<?xml version="1.0" encoding="utf-8"?>
<!-- Generator: Adobe Illustrator 15.0.0, SVG Export Plug-In . SVG Version: 6.00 Build 0)  -->
<!DOCTYPE svg PUBLIC "-//W3C//DTD SVG 1.1//EN" "http://www.w3.org/Graphics/SVG/1.1/DTD/svg11.dtd">
<svg version="1.1" id="Layer_1" xmlns="http://www.w3.org/2000/svg" xmlns:xlink="http://www.w3.org/1999/xlink" x="0px" y="0px"
	 width="512px" height="512px" viewBox="144 44 512 512" enable-background="new 144 44 512 512" xml:space="preserve">
<title></title>
<path d="M535.953,323.384c-19.075-19.075-41.456-33.64-65.847-43.178c35.147-22.963,58.425-62.649,58.425-107.674
	C528.531,101.659,470.872,44,400,44s-128.531,57.659-128.531,128.531c0,45.026,23.277,84.712,58.425,107.674
	c-24.39,9.538-46.771,24.103-65.846,43.178c-36.314,36.314-56.313,84.597-56.313,135.952v79.668c0,9.387,7.609,16.996,16.996,16.996
	H575.27c9.387,0,16.996-7.609,16.996-16.996v-79.668C592.266,407.98,572.267,359.698,535.953,323.384z M305.46,172.531
	c0-52.129,42.411-94.54,94.54-94.54c52.13,0,94.539,42.41,94.539,94.54c0,52.129-42.409,94.539-94.539,94.539
	C347.871,267.07,305.46,224.66,305.46,172.531z M558.273,522.008H241.726v-62.672c0-87.272,71.001-158.273,158.274-158.273
	s158.273,71.001,158.273,158.273V522.008z"/>
</svg>
