<?xml version="1.0" encoding="utf-8"?>
<!-- Generator: Adobe Illustrator 15.0.0, SVG Export Plug-In . SVG Version: 6.00 Build 0)  -->
<!DOCTYPE svg PUBLIC "-//W3C//DTD SVG 1.1//EN" "http://www.w3.org/Graphics/SVG/1.1/DTD/svg11.dtd">
<svg version="1.1" id="Layer_1" xmlns="http://www.w3.org/2000/svg" xmlns:xlink="http://www.w3.org/1999/xlink" x="0px" y="0px"
	 width="512px" height="512px" viewBox="0 0 512 512" enable-background="new 0 0 512 512" xml:space="preserve">
<title></title>
<g id="_36-Smartphone">
	<path d="M382.64,511H129.36c-27.687,0-50.21-22.524-50.21-50.212V49.211c0-27.687,22.523-50.21,50.21-50.21h253.278
		c27.688,0,50.211,22.523,50.211,50.21v411.578C432.851,488.476,410.326,511,382.64,511z M129.36,36.102
		c-7.229,0-13.109,5.881-13.109,13.109v411.578c0,7.229,5.881,13.109,13.109,13.109h253.278c7.229,0,13.109-5.881,13.109-13.109
		V49.211c0-7.229-5.88-13.109-13.109-13.109H129.36z"/>
	<rect x="97.701" y="78.15" width="316.599" height="37.103"/>
	<rect x="97.701" y="394.748" width="316.599" height="37.103"/>
</g>
</svg>
