<?xml version="1.0" encoding="utf-8"?>
<!-- Generator: Adobe Illustrator 15.0.0, SVG Export Plug-In . SVG Version: 6.00 Build 0)  -->
<!DOCTYPE svg PUBLIC "-//W3C//DTD SVG 1.1//EN" "http://www.w3.org/Graphics/SVG/1.1/DTD/svg11.dtd">
<svg version="1.1" id="Layer_1" xmlns="http://www.w3.org/2000/svg" xmlns:xlink="http://www.w3.org/1999/xlink" x="0px" y="0px"
	 width="512px" height="512px" viewBox="144 44 512 512" enable-background="new 144 44 512 512" xml:space="preserve">
<title></title>
<g>
	<path d="M656,348.915v-97.778h-53.693c-4.906-20.987-13.119-41.252-24.209-59.732l36.979-37.997l-68.621-68.62l-37.998,37.829
		c-18.443-11.048-38.659-19.232-59.595-24.125V44h-97.727v53.694c-20.987,4.905-41.251,13.118-59.732,24.208l-37.997-36.979
		l-68.62,68.62l37.829,37.999c-11.048,18.443-19.232,38.66-24.125,59.595H144v97.727h53.694
		c4.905,20.987,13.118,41.251,24.208,59.731l-36.979,37.997l68.647,68.647l38.157-38.158c18.436,11.039,38.644,19.219,59.569,24.109
		V556h97.726v-53.693c20.977-4.904,41.233-13.111,59.705-24.192l37.838,36.989l68.674-68.674l-38.158-38.157
		c11.031-18.423,19.207-38.617,24.099-59.525L656,348.915z M572.727,314.667l-2.291,14.364
		c-4.094,25.673-14.127,50.505-29.015,71.813l-8.159,11.679l33.906,33.906l-20.873,20.873l-33.587-32.833l-11.545,8.066
		c-21.309,14.888-46.142,24.921-71.813,29.016l-14.32,2.283v48.173h-29.742V472.72l-14.32-2.284
		c-25.671-4.094-50.504-14.127-71.813-29.015l-11.679-8.159l-33.906,33.906l-20.9-20.9l32.841-33.745l-8.048-11.519
		c-14.888-21.31-24.922-46.142-29.015-71.813l-2.284-14.319h-48.173v-29.743h48.97l2.283-14.319
		c4.093-25.671,14.126-50.504,29.016-71.813l8.141-11.652l-33.597-33.747l20.927-20.927l33.745,32.841l11.519-8.048
		c21.309-14.888,46.142-24.922,71.813-29.015l14.319-2.284V77.992h29.743v48.97l14.319,2.283
		c25.672,4.093,50.504,14.126,71.813,29.016l11.652,8.141l33.747-33.597l20.926,20.927l-32.841,33.745l8.048,11.519
		c14.888,21.309,24.921,46.142,29.016,71.813l2.283,14.319h48.173v29.691L572.727,314.667z"/>
	<path d="M400,203.336c-53.301,0-96.664,43.363-96.664,96.664s43.363,96.664,96.664,96.664s96.664-43.363,96.664-96.664
		S453.301,203.336,400,203.336z M400,362.672c-34.558,0-62.672-28.114-62.672-62.672s28.115-62.672,62.672-62.672
		s62.672,28.115,62.672,62.672S434.558,362.672,400,362.672z"/>
</g>
</svg>
