<?xml version="1.0" encoding="utf-8"?>
<!-- Generator: Adobe Illustrator 15.0.0, SVG Export Plug-In . SVG Version: 6.00 Build 0)  -->
<!DOCTYPE svg PUBLIC "-//W3C//DTD SVG 1.1//EN" "http://www.w3.org/Graphics/SVG/1.1/DTD/svg11.dtd">
<svg version="1.1" id="Layer_1" xmlns="http://www.w3.org/2000/svg" xmlns:xlink="http://www.w3.org/1999/xlink" x="0px" y="0px"
	 width="512px" height="512px" viewBox="0 0 512 512" enable-background="new 0 0 512 512" xml:space="preserve">
<title></title>
<path d="M512,487.728L343.041,318.769c29.298-34.885,45.266-78.52,45.266-124.615c0-51.858-20.195-100.615-56.865-137.285
	C294.77,20.195,246.014,0,194.152,0C142.293,0,93.536,20.195,56.866,56.865C20.195,93.537,0,142.293,0,194.153
	c0,51.86,20.195,100.616,56.866,137.287c36.67,36.67,85.427,56.866,137.286,56.866c46.096,0,89.73-15.968,124.616-45.268
	L487.729,512L512,487.728z M194.152,353.98c-88.128,0-159.827-71.698-159.827-159.827S106.024,34.325,194.152,34.325
	c88.13,0,159.829,71.697,159.829,159.826S282.282,353.98,194.152,353.98z"/>
<polygon points="215.5,217 296.13,217 296.13,177 215.5,177 175.5,177 94.87,177 94.87,217 175.5,217 "/>
</svg>
