<?xml version="1.0" encoding="utf-8"?>
<!-- Generator: Adobe Illustrator 15.0.0, SVG Export Plug-In . SVG Version: 6.00 Build 0)  -->
<!DOCTYPE svg PUBLIC "-//W3C//DTD SVG 1.1//EN" "http://www.w3.org/Graphics/SVG/1.1/DTD/svg11.dtd">
<svg version="1.1" id="Layer_1" xmlns="http://www.w3.org/2000/svg" xmlns:xlink="http://www.w3.org/1999/xlink" x="0px" y="0px"
	 width="512px" height="512px" viewBox="144 44 512 512" enable-background="new 144 44 512 512" xml:space="preserve">
<title></title>
<g>
	<path d="M639.004,107.734H160.996c-9.386,0-16.996,7.609-16.996,16.996V475.27c0,9.387,7.609,16.996,16.996,16.996h223.071v-33.992
		H177.992V158.27l211.958,155.436c2.991,2.193,6.521,3.291,10.051,3.291c3.529,0,7.06-1.098,10.051-3.291L622.008,158.27v125.797
		H656V124.73C656,115.344,648.391,107.734,639.004,107.734z M400,278.924L212.912,141.726h374.176L400,278.924z"/>
	<path d="M539.487,343.886l-24.037-24.037l-63.734,63.734c-6.636,6.638-6.636,17.399,0,24.037l63.734,63.734l24.037-24.037
		l-34.722-34.72H623.07v-33.992H504.766L539.487,343.886z"/>
</g>
</svg>
