<?xml version="1.0" encoding="utf-8"?>
<!-- Generator: Adobe Illustrator 15.0.0, SVG Export Plug-In . SVG Version: 6.00 Build 0)  -->
<!DOCTYPE svg PUBLIC "-//W3C//DTD SVG 1.1//EN" "http://www.w3.org/Graphics/SVG/1.1/DTD/svg11.dtd">
<svg version="1.1" id="Layer_1" xmlns="http://www.w3.org/2000/svg" xmlns:xlink="http://www.w3.org/1999/xlink" x="0px" y="0px"
	 width="512px" height="512px" viewBox="0 0 512 512" enable-background="new 0 0 512 512" xml:space="preserve">
<title></title>
<g transform="translate(240 288)">
	<path d="M48-192h-160v-32H48V-192z M144-32h-256V0h256V-32z M112-160h-224v32h224V-160z M144-96h-256v32h256V-96z M272,32v192h-512
		V32l64-128v-192h288l96,96v96L272,32z M208,32h28.22L208-24.429V32z M-144,32h31.968L-48,128H80l64-96h32v-210.75L98.75-256H-144
		V32z M-204.188,32h28.22v-56.43L-204.188,32z M240,64h-78.875l-64,96H-65.156l-64-96h-78.89v128h448V64H240z"/>
</g>
</svg>
