<?xml version="1.0" encoding="utf-8"?>
<!-- Generator: Adobe Illustrator 15.0.0, SVG Export Plug-In . SVG Version: 6.00 Build 0)  -->
<!DOCTYPE svg PUBLIC "-//W3C//DTD SVG 1.1//EN" "http://www.w3.org/Graphics/SVG/1.1/DTD/svg11.dtd">
<svg version="1.1" id="Layer_1" xmlns="http://www.w3.org/2000/svg" xmlns:xlink="http://www.w3.org/1999/xlink" x="0px" y="0px"
	 width="512px" height="512px" viewBox="144 44 512 512" enable-background="new 144 44 512 512" xml:space="preserve">
<title></title>
<g>
	<path d="M639.004,44h-95.602v33.992h78.605v284.68H511.535c-9.387,0-16.996,7.609-16.996,16.996v46.738H305.46v-46.738
		c0-9.387-7.609-16.996-16.996-16.996H177.992V77.992h78.606V44h-95.602C151.609,44,144,51.609,144,60.996v318.672v159.336
		c0,9.387,7.609,16.996,16.996,16.996h478.008c9.387,0,16.996-7.609,16.996-16.996V379.668V60.996C656,51.609,648.391,44,639.004,44
		z M622.008,522.008H177.992V396.664h93.477v46.738c0,9.387,7.61,16.996,16.996,16.996h223.07c9.387,0,16.996-7.609,16.996-16.996
		v-46.738h93.477V522.008z"/>
	<path d="M383.004,102.027v245.773h33.992V102.027l66.587,66.588l24.037-24.036l-95.602-95.602c-6.639-6.638-17.399-6.637-24.037,0
		L292.38,144.58l24.036,24.036L383.004,102.027z"/>
</g>
</svg>
