<?xml version="1.0" encoding="utf-8"?>
<!-- Generator: Adobe Illustrator 15.0.0, SVG Export Plug-In . SVG Version: 6.00 Build 0)  -->
<!DOCTYPE svg PUBLIC "-//W3C//DTD SVG 1.1//EN" "http://www.w3.org/Graphics/SVG/1.1/DTD/svg11.dtd">
<svg version="1.1" id="Layer_1" xmlns="http://www.w3.org/2000/svg" xmlns:xlink="http://www.w3.org/1999/xlink" x="0px" y="0px"
	 width="512px" height="512px" viewBox="-10.24 -10.24 512 512" enable-background="new -10.24 -10.24 512 512"
	 xml:space="preserve">
<path d="M501.619,247.981c0.012-0.096,0.033-0.188,0.043-0.284c0.063-0.636,0.097-1.277,0.097-1.924
	c0-0.005,0.001-0.009,0.001-0.013c0,0,0,0,0-0.001l0,0c0-0.651-0.034-1.298-0.099-1.938c-0.009-0.093-0.029-0.183-0.041-0.275
	c-0.062-0.549-0.14-1.095-0.249-1.633c-0.003-0.016-0.008-0.03-0.011-0.046c-0.746-3.624-2.526-6.955-5.204-9.631L381.19,117.272
	c-3.612-3.612-8.413-5.602-13.522-5.602c-5.107,0-9.909,1.989-13.521,5.601c-3.612,3.612-5.603,8.414-5.603,13.522
	s1.99,9.911,5.603,13.522l82.319,82.318H8.885c-10.545,0-19.125,8.58-19.125,19.126c0,10.545,8.58,19.124,19.125,19.124h427.58
	l-82.317,82.318c-7.457,7.456-7.457,19.589,0,27.044c3.611,3.612,8.413,5.602,13.521,5.602c5.109,0,9.91-1.989,13.522-5.602
	l114.836-114.836l0.132-0.128c2.678-2.677,4.457-6.009,5.203-9.635c0.002-0.014,0.007-0.027,0.01-0.041
	C501.48,249.072,501.557,248.528,501.619,247.981z"/>
</svg>
