<?xml version="1.0" encoding="utf-8"?>
<!-- Generator: Adobe Illustrator 15.0.0, SVG Export Plug-In . SVG Version: 6.00 Build 0)  -->
<!DOCTYPE svg PUBLIC "-//W3C//DTD SVG 1.1//EN" "http://www.w3.org/Graphics/SVG/1.1/DTD/svg11.dtd">
<svg version="1.1" id="Layer_1" xmlns="http://www.w3.org/2000/svg" xmlns:xlink="http://www.w3.org/1999/xlink" x="0px" y="0px"
	 width="512px" height="512px" viewBox="-238 -241 512 512" enable-background="new -238 -241 512 512" xml:space="preserve">
<g>
	<path fill="#231F20" d="M-34.762,268.839c-3.093,0-6.19-0.772-8.992-2.325c-5.898-3.27-9.558-9.482-9.558-16.226V10.632
		l-180.457-219.127c-4.563-5.542-5.521-13.218-2.457-19.71c3.063-6.492,9.598-10.634,16.776-10.634h474.898
		c7.179,0,13.713,4.142,16.776,10.633s2.106,14.168-2.456,19.709L89.325,10.631v173.698c0,6.396-3.295,12.341-8.72,15.73
		L-24.93,266.019C-27.932,267.895-31.345,268.839-34.762,268.839z M-180.141-201.737L-20.442-7.816
		c2.735,3.321,4.231,7.49,4.231,11.793v212.842l68.435-42.771V3.977c0-4.303,1.495-8.471,4.23-11.792l159.688-193.922H-180.141z"/>
</g>
</svg>
