<?xml version="1.0" encoding="utf-8"?>
<!-- Generator: Adobe Illustrator 15.0.0, SVG Export Plug-In . SVG Version: 6.00 Build 0)  -->
<!DOCTYPE svg PUBLIC "-//W3C//DTD SVG 1.1//EN" "http://www.w3.org/Graphics/SVG/1.1/DTD/svg11.dtd">
<svg version="1.1" id="Layer_1" xmlns="http://www.w3.org/2000/svg" xmlns:xlink="http://www.w3.org/1999/xlink" x="0px" y="0px"
	 width="512px" height="512px" viewBox="0 0 512 512" enable-background="new 0 0 512 512" xml:space="preserve">
<g id="g3016" transform="matrix(-1,0,0,1,502.69953,6.6120369e-6)">
</g>
<g>
	<path d="M46.603,201.83C71.095,110.425,154.11,46.586,248.481,46.586c18.304,0,36.648,2.429,54.526,7.219
		c64.266,17.22,116.779,64.349,140.88,126.294h-28.431l48.252,107.859L512,180.099h-28.801
		c-12.554-38.769-34.749-74.117-64.234-102.28C389.17,49.36,352.391,28.683,312.605,18.022c-22.143-5.933-44.936-8.759-67.534-8.419
		C179.325,10.618,115.505,38.68,69.974,86.591c-28.104,29.574-48.56,66.103-59.152,105.64l-0.386,1.437l35.782,9.601L46.603,201.83z
		"/>
	<path d="M444.94,329.326c-30.454,81.453-109.199,136.179-195.947,136.179c-25.044,0-49.769-4.496-73.484-13.363
		c-45.994-17.195-84.556-50.124-108.782-92.842l26.537-7.12l-74.536-91.737L0,377.163l29.923-8.014
		c28.122,54.429,75.169,96.189,132.594,117.659c27.714,10.361,56.657,15.615,86.026,15.615c49.709,0,97.816-14.857,139.12-42.966
		c42.237-28.745,74.03-69.263,91.944-117.174l0.521-1.395l-34.668-12.956L444.94,329.326z"/>
</g>
</svg>
