<?xml version="1.0" encoding="utf-8"?>
<!-- Generator: Adobe Illustrator 15.0.0, SVG Export Plug-In . SVG Version: 6.00 Build 0)  -->
<!DOCTYPE svg PUBLIC "-//W3C//DTD SVG 1.1//EN" "http://www.w3.org/Graphics/SVG/1.1/DTD/svg11.dtd">
<svg version="1.1" id="Layer_1" xmlns="http://www.w3.org/2000/svg" xmlns:xlink="http://www.w3.org/1999/xlink" x="0px" y="0px"
	 width="512px" height="512px" viewBox="144 44 512 512" enable-background="new 144 44 512 512" xml:space="preserve">
<title></title>
<g>
	<path d="M623.07,107.734H575.27H464.797V60.996c0-9.387-7.609-16.996-16.996-16.996h-95.602c-9.387,0-16.996,7.609-16.996,16.996
		v46.739H224.73H176.93v33.992h30.805v397.278c0,9.387,7.609,16.996,16.996,16.996H575.27c9.387,0,16.996-7.609,16.996-16.996
		V141.726h30.805V107.734z M369.195,77.992h61.61v29.743h-61.61V77.992z M558.273,522.008H241.726V141.726h316.547V522.008z"/>
	<rect x="383.004" y="188.465" width="33.992" height="286.805"/>
	<rect x="462.672" y="188.465" width="33.992" height="286.805"/>
	<rect x="287.402" y="188.465" width="33.992" height="286.805"/>
</g>
</svg>
