<?xml version="1.0" encoding="utf-8"?>
<!-- Generator: Adobe Illustrator 15.0.0, SVG Export Plug-In . SVG Version: 6.00 Build 0)  -->
<!DOCTYPE svg PUBLIC "-//W3C//DTD SVG 1.1//EN" "http://www.w3.org/Graphics/SVG/1.1/DTD/svg11.dtd">
<svg version="1.1" id="Layer_1" xmlns="http://www.w3.org/2000/svg" xmlns:xlink="http://www.w3.org/1999/xlink" x="0px" y="0px"
	 width="512px" height="512px" viewBox="-248 -248 512 512" enable-background="new -248 -248 512 512" xml:space="preserve">
<g>
	<path d="M8-184C-123.266-184-248-35.266-248,8c0,43.25,124.734,192,256,192C139.25,200,264,51.25,264,8
		C264-35.266,139.25-184,8-184z M8,136c-70.688,0-128-57.313-128-128S-62.688-120,8-120S136-62.688,136,8S78.688,136,8,136z"/>
	<path d="M8-56C8-20.672-20.672,8-56,8c0,35.313,28.672,64,64,64c35.313,0,64-28.688,64-64C72-27.328,43.313-56,8-56z"/>
</g>
</svg>
