<?xml version="1.0" encoding="utf-8"?>
<!-- Generator: Adobe Illustrator 15.0.0, SVG Export Plug-In . SVG Version: 6.00 Build 0)  -->
<!DOCTYPE svg PUBLIC "-//W3C//DTD SVG 1.1//EN" "http://www.w3.org/Graphics/SVG/1.1/DTD/svg11.dtd">
<svg version="1.1" id="Layer_1" xmlns="http://www.w3.org/2000/svg" xmlns:xlink="http://www.w3.org/1999/xlink" x="0px" y="0px"
	 width="512px" height="512px" viewBox="0 0 512 512" enable-background="new 0 0 512 512" xml:space="preserve">
<title></title>
<g id="icons">
	<path id="photo" d="M418.827,137.17h-9.217c-9.217,0-16.13-4.608-20.738-13.826l-27.651-52.999
		c-6.913-16.13-23.043-25.347-41.478-25.347H193.006c-16.13,0-32.26,9.217-41.478,25.347l-25.347,52.999
		c-4.608,9.218-11.521,13.826-20.738,13.826h-9.217c-50.695,0-92.172,41.478-92.172,92.172V367.6
		c0,50.694,41.478,92.174,92.172,92.174h322.601c50.695,0,92.173-41.479,92.173-92.174V229.343
		C511,178.648,469.522,137.17,418.827,137.17z M257.527,367.6c-50.695,0-92.173-41.478-92.173-92.172s41.478-92.172,92.173-92.172
		c50.694,0,92.172,41.478,92.172,92.172S308.222,367.6,257.527,367.6z"/>
</g>
</svg>
