<?xml version="1.0" encoding="utf-8"?>
<!-- Generator: Adobe Illustrator 15.0.0, SVG Export Plug-In . SVG Version: 6.00 Build 0)  -->
<!DOCTYPE svg PUBLIC "-//W3C//DTD SVG 1.1//EN" "http://www.w3.org/Graphics/SVG/1.1/DTD/svg11.dtd">
<svg version="1.1"
	 id="svg2439" xmlns:cc="http://creativecommons.org/ns#" xmlns:sodipodi="http://sodipodi.sourceforge.net/DTD/sodipodi-0.dtd" xmlns:svg="http://www.w3.org/2000/svg" xmlns:inkscape="http://www.inkscape.org/namespaces/inkscape" xmlns:dc="http://purl.org/dc/elements/1.1/" xmlns:rdf="http://www.w3.org/1999/02/22-rdf-syntax-ns#"
	 xmlns="http://www.w3.org/2000/svg" xmlns:xlink="http://www.w3.org/1999/xlink" x="0px" y="0px" width="512px" height="512px"
	 viewBox="0 0 512 512" enable-background="new 0 0 512 512" xml:space="preserve">
<path fill="#1D1D1B" d="M480.404,482.057c-1.126-0.354-2.29-0.533-3.461-0.533c-1.6,0-3.193,0.341-4.662,0.992
	c-22.128,2.272-173.369,5.188-271.007,6.612c-13.98-2.583-18.407-6.451-18.929-7.731c-0.188-0.461-0.008-2.778,3.187-7.213
	c2.986-4.161,9.356-6.653,16.127-9.303c9.186-3.584,20.618-8.045,27.021-19.003c7.36-12.611,3.754-21.838,0.95-26.216
	c-7.943-12.405-28.261-17.938-65.878-17.938c-18.318,0-40.835,1.323-68.838,4.048l-0.843,0.082c-3.69,0.36-6.605,0.645-8.027,0.721
	c-3.735,0.208-7.296,0.314-10.584,0.314c-22.043,0-27.464-4.609-28.596-6.017c-0.341-0.426-1.248-1.557-0.14-5.517
	c2.817-10.085,31.777-12.289,49.125-13.61c12.997-0.983,24.232-1.834,32.222-4.817l0.089-0.026l17.322-6.379l132.241-29.432
	c2.956-0.664,5.484-2.432,7.115-4.973l77.161-119.918c0.047,0,0.094,0,0.141,0c8.261,0,16.235-2.633,22.483-7.438
	c34.3-26.863,85.658-75.29,86.169-75.773c5.591-5.269,8.689-12.351,8.725-19.942c0.032-7.591-2.995-14.697-8.524-20.008
	l-86.92-83.523C379.083,4.67,372.318,2,365.022,2c-8.151,0-15.762,3.36-20.889,9.229c-1.908,2.186-47.05,53.947-72.372,88.98
	c-4.359,6.13-6.645,13.747-6.54,21.672l-117.007,82.82c-2.448,1.738-4.092,4.32-4.63,7.269l-24.383,133.251l-3.781,11.495
	c-5.593,1.051-13.564,1.655-21.309,2.241c-27.749,2.106-62.282,4.729-69.405,30.247c-3.53,12.63,0.41,21.099,4.335,25.976
	c7.889,9.82,22.925,14.594,45.971,14.594c3.743,0,7.766-0.122,12.301-0.372c1.848-0.103,5.384-0.442,9.811-0.876
	c26.856-2.616,49.588-3.941,67.563-3.941c36.253,0,43.912,5.341,45.443,7.084c-0.08,0.385-0.34,1.229-1.188,2.678
	c-2.383,4.079-8.498,6.469-15.601,9.244c-8.662,3.385-19.441,7.596-26.387,17.261c-7.484,10.432-9.424,20.254-5.765,29.191
	c4.528,11.093,16.69,18.221,37.221,21.798c0.647,0.106,1.295,0.16,1.924,0.16h0.135h0.03c0.691-0.01,69.926-1.023,138.329-2.438
	c72.207-1.493,108.45-2.242,126.774-3.647c17.709-1.358,21.781-3.327,22.934-11.088C489.348,489.386,485.782,483.78,480.404,482.057
	z M272.904,144.454c0.995,1.284,2.072,2.481,3.22,3.584c20.135,19.381,40.292,38.793,60.47,58.274
	c0.927,0.892,1.917,1.736,2.965,2.526l-71.396,110.962l-104.195,23.193l49.49-51.448c2.761,0.869,5.628,1.31,8.558,1.31
	c7.762,0,14.995-3.076,20.361-8.657c5.267-5.46,8.087-12.645,7.943-20.232c-0.145-7.595-3.242-14.675-8.711-19.928
	c-5.3-5.124-12.282-7.945-19.659-7.945c-7.784,0-15.052,3.086-20.475,8.696c-7.571,7.878-9.849,19.439-6.063,29.581l-49.4,51.331
	l19.217-105.038L272.904,144.454z M290.334,113.533c25.257-34.941,70.57-86.759,71.032-87.283c0.96-1.103,2.191-1.687,3.563-1.687
	c1.192,0,2.313,0.476,3.256,1.393l86.976,83.579c0.986,0.944,1.505,2.125,1.501,3.396c-0.01,1.299-0.545,2.484-1.56,3.439
	c-0.494,0.467-50.815,47.962-84.488,74.338c-2.053,1.575-5.114,2.477-8.402,2.477c-3.938,0-7.595-1.25-9.766-3.33
	c-18.04-17.426-37.823-36.493-60.485-58.292C287.466,127.246,286.698,118.641,290.334,113.533z"/>
</svg>
