<?xml version="1.0" encoding="utf-8"?>
<!-- Generator: Adobe Illustrator 15.0.0, SVG Export Plug-In . SVG Version: 6.00 Build 0)  -->
<!DOCTYPE svg PUBLIC "-//W3C//DTD SVG 1.1//EN" "http://www.w3.org/Graphics/SVG/1.1/DTD/svg11.dtd">
<svg version="1.1" id="Layer_1" xmlns="http://www.w3.org/2000/svg" xmlns:xlink="http://www.w3.org/1999/xlink" x="0px" y="0px"
	 width="512px" height="512px" viewBox="0 0 512 512" enable-background="new 0 0 512 512" xml:space="preserve">
<title></title>
<path d="M256,507.206c-3.771,0-7.539-1.215-10.687-3.642c-7.812-6.024-191.689-148.701-224.229-250.223
	c-9.874-30.808-13.613-62.77-10.812-92.432c2.895-30.662,12.729-58.25,28.439-79.782C62.815,48.092,98.764,30.63,142.674,30.63
	c59.663,0,92.214,32.647,109.015,60.034c2.05,3.342,3.916,6.685,5.609,9.983c1.974-3.489,4.138-7.029,6.511-10.571
	c26.049-38.89,64.266-59.446,110.518-59.446c40.845,0,74.426,15.896,97.112,45.969c16.044,21.267,26.149,49.385,29.225,81.315
	c2.89,30-0.425,62.813-9.586,94.891c-12.383,43.36-54.217,98.943-124.339,165.204c-51.193,48.375-98.186,84.139-100.16,85.638
	C263.45,506.021,259.725,507.206,256,507.206z M142.674,65.63c-32.271,0-58.444,12.492-75.687,36.126
	c-24.742,33.912-29.559,87.902-12.572,140.902c25.092,78.289,162.232,193.004,201.674,224.777
	c16.785-13.308,51.139-41.326,86.845-75.086c64.43-60.917,104.019-112.493,114.489-149.155
	c16.235-56.851,10.9-112.609-13.925-145.517c-16.043-21.266-39.315-32.048-69.172-32.048c-34.517,0-61.916,14.778-81.438,43.924
	c-14.93,22.29-19.667,45.071-19.711,45.295c-1.642,8.422-9.108,14.421-17.725,14.143c-8.577-0.269-15.693-6.716-16.804-15.225
	C238.16,150.222,225.588,65.63,142.674,65.63z"/>
</svg>
