<?xml version="1.0" encoding="utf-8"?>
<!-- Generator: Adobe Illustrator 15.0.0, SVG Export Plug-In . SVG Version: 6.00 Build 0)  -->
<!DOCTYPE svg PUBLIC "-//W3C//DTD SVG 1.1//EN" "http://www.w3.org/Graphics/SVG/1.1/DTD/svg11.dtd">
<svg version="1.1" id="Layer_1" xmlns="http://www.w3.org/2000/svg" xmlns:xlink="http://www.w3.org/1999/xlink" x="0px" y="0px"
	 width="512px" height="512px" viewBox="144 44 512 512" enable-background="new 144 44 512 512" xml:space="preserve">
<title></title>
<path d="M651.022,287.982L412.019,48.978c-6.639-6.637-17.399-6.637-24.037,0L148.978,287.982l24.036,24.037l34.721-34.721v261.707
	c0,9.387,7.609,16.996,16.996,16.996H575.27c9.387,0,16.996-7.609,16.996-16.996V277.298l34.721,34.721L651.022,287.982z
	 M446.738,522.009h-93.477V364.797h93.477V522.009z M558.273,522.009H480.73V347.801c0-9.387-7.609-16.996-16.996-16.996H336.266
	c-9.387,0-16.996,7.609-16.996,16.996v174.208h-77.544V243.306L400,85.031l158.273,158.274V522.009z"/>
</svg>
