<?xml version="1.0" encoding="utf-8"?>
<!-- Generator: Adobe Illustrator 15.0.0, SVG Export Plug-In . SVG Version: 6.00 Build 0)  -->
<!DOCTYPE svg PUBLIC "-//W3C//DTD SVG 1.1//EN" "http://www.w3.org/Graphics/SVG/1.1/DTD/svg11.dtd">
<svg version="1.1" id="Layer_1" xmlns="http://www.w3.org/2000/svg" xmlns:xlink="http://www.w3.org/1999/xlink" x="0px" y="0px"
	 width="512px" height="512px" viewBox="41.64 164.945 512 512" enable-background="new 41.64 164.945 512 512"
	 xml:space="preserve">
<g>
	<path d="M297.64,665.945c135.145,0,245-109.855,245-245c0-135.146-109.855-245-245-245s-245,109.854-245,245
		C52.64,556.09,162.495,665.945,297.64,665.945z M107.963,518.55l99.58-0.79c11.064,39.911,29.637,78.637,54.928,113.411
		C194.898,620.106,138.39,577.033,107.963,518.55z M232.833,353.768h124.081c9.089,43.468,9.089,88.122,0.79,131.588l-124.871,0.792
		C223.744,442.283,223.744,397.235,232.833,353.768z M294.874,622.083c-24.895-32.009-43.073-67.179-54.137-104.323l108.668-0.791
		C337.947,554.114,319.77,589.679,294.874,622.083z M326.487,632.356c26.08-35.563,44.653-74.686,55.718-115.782l106.298-0.79
		C457.681,577.824,397.616,622.478,326.487,632.356z M511.027,420.945c0,22.129-3.557,43.468-9.483,63.226l-111.831,0.79
		c7.904-43.468,7.509-87.726-0.79-131.193h111.04C507.075,374.711,511.027,397.631,511.027,420.945z M486.527,322.155H381.414
		c-11.46-39.517-29.637-77.847-54.928-112.621C396.431,219.018,455.309,262.09,486.527,322.155z M348.616,322.155H241.132
		c11.46-36.355,29.242-70.734,53.742-102.347C319.373,251.421,337.156,285.8,348.616,322.155z M262.471,210.719
		c-24.896,34.379-43.073,71.919-54.137,111.436h-99.581C139.18,264.066,195.293,221.784,262.471,210.719z M200.825,353.768
		c-8.298,43.863-8.298,88.516-0.395,132.38l-105.508,0.789c-7.113-20.942-10.669-43.071-10.669-65.991
		c0-23.314,3.952-46.234,11.064-67.178H200.825z"/>
</g>
</svg>
