<?xml version="1.0" encoding="utf-8"?>
<!-- Generator: Adobe Illustrator 15.0.0, SVG Export Plug-In . SVG Version: 6.00 Build 0)  -->
<!DOCTYPE svg PUBLIC "-//W3C//DTD SVG 1.1//EN" "http://www.w3.org/Graphics/SVG/1.1/DTD/svg11.dtd">
<svg version="1.1" id="Layer_1" xmlns="http://www.w3.org/2000/svg" xmlns:xlink="http://www.w3.org/1999/xlink" x="0px" y="0px"
	 width="512px" height="512px" viewBox="0 0 512 512" enable-background="new 0 0 512 512" xml:space="preserve">
<title></title>
<path fill="#1D1D1B" d="M155.046,467.679c-84.267,0-152.824-68.558-152.824-152.824V128.348c0-24.577,19.926-44.503,44.502-44.503
	c24.577,0,44.504,19.926,44.504,44.503v186.506c0,35.179,28.628,63.818,63.818,63.818c35.192,0,63.82-28.64,63.82-63.818
	l0.065-123.034c0-80.509,65.516-146.002,146.046-146.002C445.485,45.818,511,111.311,511,191.841
	c0,80.509-65.516,146.023-146.022,146.023c-24.577,0-44.502-19.925-44.502-44.502c0-24.576,19.925-44.502,44.502-44.502
	c31.441,0,57.019-25.575,57.019-57.019c0-31.442-25.577-57.017-57.019-57.017c-31.465,0-57.041,25.575-57.041,57.017l-0.066,123.034
	C307.87,399.121,239.315,467.679,155.046,467.679z"/>
</svg>
