<?xml version="1.0" encoding="utf-8"?>
<!-- Generator: Adobe Illustrator 15.0.0, SVG Export Plug-In . SVG Version: 6.00 Build 0)  -->
<!DOCTYPE svg PUBLIC "-//W3C//DTD SVG 1.1//EN" "http://www.w3.org/Graphics/SVG/1.1/DTD/svg11.dtd">
<svg version="1.1" id="Layer_1" xmlns="http://www.w3.org/2000/svg" xmlns:xlink="http://www.w3.org/1999/xlink" x="0px" y="0px"
	 width="512px" height="512px" viewBox="0 0 512 512" enable-background="new 0 0 512 512" xml:space="preserve">
<title></title>
<g>
	<path d="M493.22,0H18.78C8.408,0,0,8.408,0,18.78v347.923c0,10.371,8.408,18.779,18.78,18.779h123.552V493.22
		c0,7.596,4.575,14.444,11.593,17.351c2.324,0.963,4.764,1.43,7.183,1.43c4.888,0,9.691-1.908,13.284-5.502l121.017-121.016H493.22
		c10.372,0,18.78-8.408,18.78-18.779V18.78C512,8.408,503.592,0,493.22,0z M474.44,347.923H287.629
		c-4.98,0-9.757,1.979-13.278,5.501l-94.459,94.457v-81.178c0-10.372-8.408-18.78-18.78-18.78H37.561V37.561h436.88V347.923z"/>
	<path d="M256,227.336c19.075,0,34.595-15.52,34.595-34.595s-15.52-34.595-34.595-34.595s-34.595,15.52-34.595,34.595
		S236.925,227.336,256,227.336z M256,189.775c1.635,0,2.965,1.33,2.965,2.966c0,1.635-1.33,2.965-2.965,2.965
		c-1.636,0-2.966-1.33-2.966-2.965C253.034,191.105,254.364,189.775,256,189.775z"/>
	<path d="M366.703,227.336c19.075,0,34.594-15.52,34.594-34.595s-15.519-34.595-34.594-34.595c-19.076,0-34.595,15.52-34.595,34.595
		S347.627,227.336,366.703,227.336z M366.703,189.775c1.635,0,2.965,1.33,2.965,2.966c0,1.635-1.33,2.965-2.965,2.965
		c-1.636,0-2.966-1.33-2.966-2.965C363.737,191.105,365.067,189.775,366.703,189.775z"/>
	<path d="M145.297,227.336c19.075,0,34.595-15.52,34.595-34.595s-15.52-34.595-34.595-34.595c-19.074,0-34.594,15.52-34.594,34.595
		S126.223,227.336,145.297,227.336z M145.297,189.775c1.636,0,2.966,1.33,2.966,2.966c0,1.635-1.33,2.965-2.966,2.965
		c-1.635,0-2.965-1.33-2.965-2.965C142.332,191.105,143.662,189.775,145.297,189.775z"/>
</g>
</svg>
