<?xml version="1.0" encoding="utf-8"?>
<!-- Generator: Adobe Illustrator 15.0.0, SVG Export Plug-In . SVG Version: 6.00 Build 0)  -->
<!DOCTYPE svg PUBLIC "-//W3C//DTD SVG 1.1//EN" "http://www.w3.org/Graphics/SVG/1.1/DTD/svg11.dtd">
<svg version="1.1" id="Layer_1" xmlns="http://www.w3.org/2000/svg" xmlns:xlink="http://www.w3.org/1999/xlink" x="0px" y="0px"
	 width="512px" height="512px" viewBox="-232 -232 512 512" enable-background="new -232 -232 512 512" xml:space="preserve">
<path d="M127.758-115.636V152c0,51.432-41.659,93.091-93.091,93.091c-51.432,0-93.091-41.659-93.091-93.091v-290.909
	c0-32.114,26.067-58.182,58.181-58.182s58.182,26.068,58.182,58.182v244.364c0,12.795-10.363,23.272-23.272,23.272
	c-12.915,0-23.273-10.478-23.273-23.272v-221.091h-34.909v221.091c0,32.113,26.068,58.182,58.182,58.182
	c32.113,0,58.182-26.068,58.182-58.182v-244.364C92.849-190.341,51.189-232-0.243-232c-51.431,0-93.09,41.659-93.09,93.091V152
	c0,70.75,57.369,128,128,128c70.637,0,128-57.25,128-128v-267.636H127.758z"/>
</svg>
