<?xml version="1.0" encoding="utf-8"?>
<!-- Generator: Adobe Illustrator 15.0.0, SVG Export Plug-In . SVG Version: 6.00 Build 0)  -->
<!DOCTYPE svg PUBLIC "-//W3C//DTD SVG 1.1//EN" "http://www.w3.org/Graphics/SVG/1.1/DTD/svg11.dtd">
<svg version="1.1" id="Layer_1" xmlns="http://www.w3.org/2000/svg" xmlns:xlink="http://www.w3.org/1999/xlink" x="0px" y="0px"
	 width="512px" height="512px" viewBox="0 0 512 512" enable-background="new 0 0 512 512" xml:space="preserve">
<title></title>
<path d="M495.003,95.602H257.062V16.996C257.062,7.61,249.454,0,240.065,0H16.996C7.609,0,0,7.61,0,16.996v95.602v350.538
	c0,9.388,7.609,16.996,16.996,16.996h478.008c9.388,0,16.996-7.609,16.996-16.996V112.597
	C511.999,103.211,504.39,95.602,495.003,95.602z M223.069,33.991v61.61H33.991v-61.61H223.069z M478.007,446.139H33.991V129.593
	h444.016V446.139z"/>
<g>
	<path d="M232.951,382.55c-5.119,0-10.237-1.952-14.142-5.857l-94.045-94.045c-7.811-7.811-7.811-20.475,0-28.285
		c7.81-7.81,20.473-7.811,28.284,0l79.903,79.903l144.957-144.957c7.811-7.811,20.475-7.811,28.285,0s7.811,20.474,0,28.284
		l-159.1,159.1C243.188,380.597,238.069,382.55,232.951,382.55z"/>
</g>
</svg>
