<?xml version="1.0" encoding="utf-8"?>
<!-- Generator: Adobe Illustrator 15.0.0, SVG Export Plug-In . SVG Version: 6.00 Build 0)  -->
<!DOCTYPE svg PUBLIC "-//W3C//DTD SVG 1.1//EN" "http://www.w3.org/Graphics/SVG/1.1/DTD/svg11.dtd">
<svg version="1.1" id="Layer_1" xmlns="http://www.w3.org/2000/svg" xmlns:xlink="http://www.w3.org/1999/xlink" x="0px" y="0px"
	 width="512px" height="512px" viewBox="0 0 512 512" enable-background="new 0 0 512 512" xml:space="preserve">
<title></title>
<g>
	<path d="M146,0H0v511h146V0z M113.556,478.556H32.444V32.445h81.111V478.556z"/>
	<path d="M170.333,511H511V0H170.333V511z M202.778,32.445h275.778v446.111H202.778V32.445z"/>
	<rect x="243.333" y="113.556" width="194.667" height="32.444"/>
	<rect x="243.333" y="227.112" width="32.444" height="32.444"/>
	<rect x="324.443" y="227.112" width="32.445" height="32.444"/>
	<rect x="405.556" y="227.112" width="32.444" height="32.444"/>
	<rect x="243.333" y="308.222" width="32.444" height="32.444"/>
	<rect x="324.443" y="308.222" width="32.445" height="32.444"/>
	<rect x="405.556" y="308.222" width="32.444" height="32.444"/>
	<rect x="243.333" y="389.334" width="32.444" height="32.444"/>
	<rect x="324.443" y="389.334" width="32.445" height="32.444"/>
	<rect x="405.556" y="389.334" width="32.444" height="32.444"/>
</g>
</svg>
