<?xml version="1.0" encoding="utf-8"?>
<!-- Generator: Adobe Illustrator 15.0.0, SVG Export Plug-In . SVG Version: 6.00 Build 0)  -->
<!DOCTYPE svg PUBLIC "-//W3C//DTD SVG 1.1//EN" "http://www.w3.org/Graphics/SVG/1.1/DTD/svg11.dtd">
<svg version="1.1" id="Layer_1" xmlns="http://www.w3.org/2000/svg" xmlns:xlink="http://www.w3.org/1999/xlink" x="0px" y="0px"
	 width="512px" height="512px" viewBox="0 0 512 512" enable-background="new 0 0 512 512" xml:space="preserve">
<title></title>
<g>
	<path d="M495.004,63.734H16.996C7.61,63.734,0,71.343,0,80.73V431.27c0,9.387,7.609,16.996,16.996,16.996h223.071v-33.992H33.992
		V114.271L245.95,269.707c2.991,2.191,6.521,3.291,10.051,3.291c3.529,0,7.06-1.1,10.051-3.291l211.956-155.437v125.796H512V80.73
		C512,71.344,504.391,63.734,495.004,63.734z M256,234.924L68.912,97.727h374.176L256,234.924z"/>
	<path d="M410.358,275.85l-24.037,24.037l34.722,34.719H302.738v33.99h118.306l-34.723,34.721l24.037,24.037l63.734-63.734
		c6.636-6.637,6.636-17.398,0-24.037L410.358,275.85z"/>
</g>
</svg>
