<?xml version="1.0" encoding="utf-8"?>
<!-- Generator: Adobe Illustrator 15.0.0, SVG Export Plug-In . SVG Version: 6.00 Build 0)  -->
<!DOCTYPE svg PUBLIC "-//W3C//DTD SVG 1.1//EN" "http://www.w3.org/Graphics/SVG/1.1/DTD/svg11.dtd">
<svg version="1.1" id="Layer_1" xmlns="http://www.w3.org/2000/svg" xmlns:xlink="http://www.w3.org/1999/xlink" x="0px" y="0px"
	 width="512px" height="512px" viewBox="0 0 512 512" enable-background="new 0 0 512 512" xml:space="preserve">
<title></title>
<g id="_18-Time">
	<g>
		<path d="M256,512c-68.38,0-132.667-26.628-181.02-74.98C26.628,388.668,0,324.38,0,256c0-68.38,26.628-132.667,74.98-181.02
			S187.62,0,256,0c68.38,0,132.668,26.628,181.02,74.98C485.372,123.333,512,187.62,512,256c0,68.38-26.628,132.668-74.98,181.02
			C388.668,485.372,324.38,512,256,512z M256,37.56C135.552,37.56,37.56,135.552,37.56,256S135.552,474.44,256,474.44
			S474.44,376.448,474.44,256S376.448,37.56,256,37.56z"/>
	</g>
	<g>
		<path d="M414.146,290.595H256c-10.372,0-18.78-8.408-18.78-18.78V113.668h37.56v139.367h139.366V290.595z"/>
	</g>
</g>
</svg>
