<?xml version="1.0" encoding="utf-8"?>
<!-- Generator: Adobe Illustrator 15.0.0, SVG Export Plug-In . SVG Version: 6.00 Build 0)  -->
<!DOCTYPE svg PUBLIC "-//W3C//DTD SVG 1.1//EN" "http://www.w3.org/Graphics/SVG/1.1/DTD/svg11.dtd">
<svg version="1.1" id="Layer_1" xmlns:sketch="http://www.bohemiancoding.com/sketch/ns"
	 xmlns="http://www.w3.org/2000/svg" xmlns:xlink="http://www.w3.org/1999/xlink" x="0px" y="0px" width="512px" height="512px"
	 viewBox="-240 -240 512 512" enable-background="new -240 -240 512 512" xml:space="preserve">
<g id="star">
	<path d="M168.644,255.038c-3.576,0-7.161-1.031-10.288-3.116L16,157.02l-142.355,94.902c-6.761,4.506-15.669,4.091-21.978-1.03
		c-6.31-5.119-8.553-13.75-5.536-21.294l62.252-155.63l-140.122-93.415c-6.802-4.535-9.833-12.987-7.464-20.811
		c2.369-7.824,9.58-13.175,17.754-13.175h157.046l63.178-157.944C1.594-218.42,8.415-223.038,16-223.038s14.406,4.618,17.223,11.661
		L96.401-53.433h157.047c8.175,0,15.386,5.351,17.754,13.175c2.369,7.824-0.663,16.276-7.464,20.811L123.617,73.968l62.252,155.63
		c3.018,7.544,0.774,16.175-5.536,21.294C176.941,253.645,172.799,255.038,168.644,255.038z M16,116.174
		c3.587,0,7.174,1.038,10.29,3.115l102.949,68.632L83.579,73.771c-3.258-8.145-0.364-17.458,6.935-22.324l101.667-67.779H83.842
		c-7.585,0-14.406-4.618-17.224-11.661L16-154.539L-34.618-27.993c-2.817,7.043-9.638,11.661-17.224,11.661h-108.337l101.667,67.779
		c7.299,4.866,10.191,14.18,6.934,22.324l-45.66,114.149L5.71,119.289C8.826,117.212,12.413,116.174,16,116.174z"/>
</g>
</svg>
