<?xml version="1.0" encoding="utf-8"?>
<!-- Generator: Adobe Illustrator 15.0.0, SVG Export Plug-In . SVG Version: 6.00 Build 0)  -->
<!DOCTYPE svg PUBLIC "-//W3C//DTD SVG 1.1//EN" "http://www.w3.org/Graphics/SVG/1.1/DTD/svg11.dtd">
<svg version="1.1" id="Layer_1" xmlns="http://www.w3.org/2000/svg" xmlns:xlink="http://www.w3.org/1999/xlink" x="0px" y="0px"
	 width="512px" height="512px" viewBox="0 0 512 512" enable-background="new 0 0 512 512" xml:space="preserve">
<title></title>
<path d="M494.485,311.433c3.637-16.659,5.53-33.879,5.53-51.591c0-132.712-107.588-240.311-240.32-240.311
	c-14.005,0-27.729,1.223-41.113,3.506C197.115,9.503,171.69,1.629,144.442,1.629c-76.984,0-139.384,62.41-139.384,139.404
	c0,25.725,7.012,49.797,19.153,70.483c-3.206,15.607-4.857,31.786-4.857,48.325c0,132.752,107.578,240.351,240.33,240.351
	c15.047,0,29.722-1.393,43.997-4.027c19.634,10.539,42.054,16.529,65.896,16.529c76.976,0,139.364-62.398,139.364-139.374
	C508.95,351.082,503.741,330.095,494.485,311.433z M382.949,374.703c-11.1,15.728-27.528,28.199-48.825,37.045
	c-21.077,8.756-46.341,13.214-75.092,13.214c-34.51,0-63.471-6.092-86.05-18.072c-16.158-8.705-29.462-20.506-39.579-35.121
	c-10.188-14.696-15.367-29.302-15.367-43.407c0-8.795,3.366-16.438,10.018-22.68c6.582-6.2,15.017-9.336,25.094-9.336
	c8.254,0,15.387,2.465,21.167,7.344c5.53,4.707,10.258,11.649,14.085,20.605c4.267,9.777,8.895,18.012,13.803,24.462
	c4.729,6.262,11.5,11.502,20.166,15.608c8.716,4.117,20.466,6.211,34.892,6.211c19.884,0,36.183-4.228,48.424-12.603
	c11.991-8.164,17.772-17.981,17.772-29.981c0-9.488-3.025-16.93-9.257-22.811c-6.571-6.121-15.177-10.849-25.665-14.145
	c-10.909-3.396-25.746-7.082-44.077-10.93c-24.964-5.339-46.142-11.68-62.991-18.823c-17.26-7.343-31.145-17.521-41.302-30.223
	c-10.308-12.932-15.547-29.101-15.547-48.164c0-18.152,5.49-34.531,16.318-48.625c10.739-14.024,26.446-24.943,46.652-32.387
	c19.935-7.373,43.656-11.12,70.524-11.12c21.457,0,40.311,2.504,56.078,7.374c15.848,4.928,29.201,11.59,39.689,19.784
	c10.559,8.274,18.432,17.08,23.38,26.275c4.97,9.247,7.483,18.483,7.483,27.399c0,8.595-3.296,16.398-9.857,23.221
	c-6.591,6.832-14.875,10.297-24.673,10.297c-8.896,0-15.877-2.183-20.706-6.431c-4.487-4.007-9.156-10.208-14.335-19.114
	c-5.991-11.37-13.244-20.356-21.567-26.687c-8.095-6.161-21.589-9.256-40.151-9.256c-17.21,0-31.234,3.456-41.633,10.298
	c-10.027,6.551-14.906,14.095-14.906,23.02c0,5.49,1.583,10.048,4.829,13.985c3.406,4.197,8.244,7.823,14.315,10.899
	c6.311,3.186,12.842,5.7,19.353,7.482c6.672,1.874,17.872,4.608,33.24,8.155c19.443,4.188,37.345,8.855,53.133,13.924
	c16.028,5.129,29.831,11.42,41.131,18.772c11.5,7.484,20.627,17.101,27.098,28.611c6.492,11.54,9.778,25.774,9.778,42.334
	C399.79,340.863,394.11,358.936,382.949,374.703z"/>
</svg>
