<?xml version="1.0" encoding="utf-8"?>
<!-- Generator: Adobe Illustrator 15.0.0, SVG Export Plug-In . SVG Version: 6.00 Build 0)  -->
<!DOCTYPE svg PUBLIC "-//W3C//DTD SVG 1.1//EN" "http://www.w3.org/Graphics/SVG/1.1/DTD/svg11.dtd">
<svg version="1.1" id="Layer_1" xmlns="http://www.w3.org/2000/svg" xmlns:xlink="http://www.w3.org/1999/xlink" x="0px" y="0px"
	 width="512px" height="512px" viewBox="1744 744 512 512" enable-background="new 1744 744 512 512" xml:space="preserve">
<path d="M2255.936,759.046c-0.129-4.465-2.363-9.147-5.539-11.632c-3.62-2.895-8.073-3.974-13.041-3.143l-311.996,65.121
	c-7.276,1.647-12.358,7.967-12.358,15.368v258.937c-18.167-17.776-42.424-27.491-68.984-27.491
	c-55.114,0-99.952,44.839-99.952,99.951c0,26.729,10.394,51.818,29.268,70.648c18.87,18.826,44.012,29.194,70.794,29.194
	c26.77,0,51.894-10.389,70.742-29.253c18.836-18.851,29.21-43.959,29.21-70.7V927.432l280.891-58.681v149.316
	c-18.036-17.55-42.832-27.504-68.985-27.504c-55.113,0-99.951,44.838-99.951,99.951c0,55.114,44.838,99.952,99.951,99.952
	c55.114,0,99.952-44.838,99.952-99.952V759.046z M2224.859,778.41v59.267l-280.891,58.681v-59.267L2224.859,778.41z
	 M1844.126,1224.374c-38.039,0-68.985-30.945-68.985-68.984s30.946-68.985,68.985-68.985s68.985,30.946,68.985,68.985
	S1882.165,1224.374,1844.126,1224.374z M2155.874,1021.53c38.039,0,68.985,30.946,68.985,68.984s-30.946,68.985-68.985,68.985
	c-38.037,0-68.984-30.947-68.984-68.985S2117.837,1021.53,2155.874,1021.53z"/>
</svg>
