<?xml version="1.0" encoding="utf-8"?>
<!-- Generator: Adobe Illustrator 15.0.0, SVG Export Plug-In . SVG Version: 6.00 Build 0)  -->
<!DOCTYPE svg PUBLIC "-//W3C//DTD SVG 1.1//EN" "http://www.w3.org/Graphics/SVG/1.1/DTD/svg11.dtd">
<svg version="1.1"
	 id="svg2439" xmlns:cc="http://creativecommons.org/ns#" xmlns:sodipodi="http://sodipodi.sourceforge.net/DTD/sodipodi-0.dtd" xmlns:svg="http://www.w3.org/2000/svg" xmlns:inkscape="http://www.inkscape.org/namespaces/inkscape" xmlns:dc="http://purl.org/dc/elements/1.1/" xmlns:rdf="http://www.w3.org/1999/02/22-rdf-syntax-ns#"
	 xmlns="http://www.w3.org/2000/svg" xmlns:xlink="http://www.w3.org/1999/xlink" x="0px" y="0px" width="512px" height="512px"
	 viewBox="0 0 512 512" enable-background="new 0 0 512 512" xml:space="preserve">
<path fill="#1D1D1B" d="M482.242,198.527c0-3.035-0.582-6-1.717-8.779c-0.83-2.08-1.949-4.028-3.34-5.808v-2.682h-2.441
	c-0.809-0.748-1.714-1.468-2.729-2.172c-1.163-1.728-2.474-3.215-3.986-4.524l-16.919-14.672V66.618c0-1.51-0.152-2.974-0.479-4.571
	l-0.002-0.53l-0.243-0.495c-0.146-0.547-0.336-1.136-0.6-1.874l0.011,0.026l-0.308-1.018v-0.445l-0.228-0.31l-0.012-0.042
	l0.588-0.382l-2.527-3.058l-0.104-0.313l-0.358-0.325l-1.771-2.789l-0.308,0.201c-0.108-0.122-0.212-0.233-0.303-0.325
	c-5.123-5.427-12.473-8.539-20.164-8.539H314.889L275.285,7.507c-4.553-3.957-10.687-6.136-17.274-6.136
	c-6.575,0-12.708,2.173-17.272,6.123l-39.608,34.333H95.101c-14.796,0-26.835,11.12-26.835,24.789v90.396l-20.262,17.555
	c-0.879,0.762-1.706,1.583-2.467,2.45c-2.815,1.251-5.092,2.766-6.937,4.612c-4.535,4.539-7.032,10.54-7.032,16.898V488.11
	c0,6.551,2.762,12.835,7.601,17.355l0.125,0.222l0.545,0.397l0.432,0.393l0.102,0.042c4.257,3.512,9.436,5.404,15.077,5.481h402.913
	c5.648,0,11.144-2.064,15.5-5.818l0.32-0.238l0.14-0.158c5.037-4.541,7.921-10.969,7.921-17.678L482.242,198.527z M236.216,41.829
	l19.57-16.959c0.35-0.303,1.174-0.61,2.227-0.61c1.049,0,1.865,0.302,2.214,0.604l19.57,16.964H236.216z M459.26,214.602v263.191
	L306.234,365.307L459.26,214.602z M263.703,334.06c-1.968-1.446-4.311-2.21-6.774-2.21h-0.342c-2.465,0-4.809,0.764-6.779,2.211
	l-22.993,16.908l-38.677-38.083l-96.894-95.429l0.003-150.839c0-0.435,1.41-1.806,3.854-1.806h329.202
	c1.297,0,2.488,0.424,3.289,1.167l0.205,0.224c0.048,0.057,0.093,0.121,0.143,0.194l0.105,0.187l0.082,0.236v146.175L287.471,351.52
	L263.703,334.06z M78.099,489.019l178.663-131.333l24.702,18.145c0.478,0.352,0.922,0.565,1.223,0.702l153.051,112.486H78.099z
	 M208.185,364.868L54.548,477.808V213.579L208.185,364.868z"/>
</svg>
