<?xml version="1.0" encoding="utf-8"?>
<!-- Generator: Adobe Illustrator 15.0.0, SVG Export Plug-In . SVG Version: 6.00 Build 0)  -->
<!DOCTYPE svg PUBLIC "-//W3C//DTD SVG 1.1//EN" "http://www.w3.org/Graphics/SVG/1.1/DTD/svg11.dtd">
<svg version="1.1" id="Layer_1" xmlns="http://www.w3.org/2000/svg" xmlns:xlink="http://www.w3.org/1999/xlink" x="0px" y="0px"
	 width="512px" height="512px" viewBox="0 0 512 512" enable-background="new 0 0 512 512" xml:space="preserve">
<title></title>
<g>
	<path d="M128.416,306.698c29.018-30.745,68.271-48.352,110.529-49.573c42.26-1.225,76.464,8.086,107.21,37.103l23.331-24.721
		c-18.229-17.205-33.2-24.43-55.858-33.301c35.147-22.963,58.425-62.649,58.425-107.677C372.053,57.659,314.395,0,243.521,0
		c-70.874,0-128.53,57.659-128.53,128.529c0,45.022,23.272,84.705,58.416,107.671c-26.13,10.205-49.888,26.161-69.712,47.168
		c-33.816,35.831-52.439,82.698-52.438,131.968v79.668c0,9.387,7.609,16.996,16.996,16.996H286.5v-33.992H85.248v-62.672
		C85.247,374.777,100.578,336.196,128.416,306.698z M148.982,128.531c0-52.129,42.41-94.538,94.539-94.538
		c52.129,0,94.54,42.408,94.54,94.538c0,52.131-42.41,94.539-94.54,94.539C191.393,223.07,148.982,180.66,148.982,128.531z"/>
</g>
<path d="M318.226,511.818c-3.106,0-6.201-0.964-8.817-2.864c-4.756-3.455-7.055-9.369-5.882-15.129l12.652-62.137l-46.76-42.83
	c-4.334-3.971-5.95-10.106-4.134-15.697c1.816-5.59,6.73-9.604,12.57-10.269l63.005-7.165l26.284-57.707
	c2.436-5.349,7.772-8.782,13.65-8.782s11.215,3.434,13.65,8.782l26.284,57.707l63.005,7.165c5.84,0.665,10.754,4.679,12.57,10.269
	c1.816,5.591,0.2,11.727-4.134,15.696l-46.759,42.831l12.653,62.137c1.173,5.76-1.126,11.674-5.882,15.129
	c-4.755,3.454-11.089,3.814-16.206,0.918l-55.183-31.237l-55.181,31.237C323.313,511.174,320.766,511.818,318.226,511.818z
	 M380.795,446.398c2.549,0,5.097,0.648,7.39,1.946l33.913,19.197l-7.776-38.187c-1.051-5.161,0.683-10.496,4.566-14.054
	l28.736-26.322l-38.722-4.403c-5.233-0.596-9.771-3.893-11.955-8.687l-16.152-35.463l-16.152,35.463
	c-2.184,4.794-6.722,8.091-11.955,8.687l-38.721,4.403l28.736,26.321c3.884,3.559,5.617,8.893,4.566,14.055l-7.775,38.187
	l33.911-19.197C375.697,447.046,378.246,446.398,380.795,446.398z"/>
</svg>
