<?xml version="1.0" encoding="utf-8"?>
<!-- Generator: Adobe Illustrator 15.0.0, SVG Export Plug-In . SVG Version: 6.00 Build 0)  -->
<!DOCTYPE svg PUBLIC "-//W3C//DTD SVG 1.1//EN" "http://www.w3.org/Graphics/SVG/1.1/DTD/svg11.dtd">
<svg version="1.1" id="Layer_1" xmlns="http://www.w3.org/2000/svg" xmlns:xlink="http://www.w3.org/1999/xlink" x="0px" y="0px"
	 width="512px" height="512px" viewBox="0 0 512 512" enable-background="new 0 0 512 512" xml:space="preserve">
<title></title>
<g>
	<path d="M424.505,58.043H386.5v32.177h38.005c7.319,0,13.739,6.745,13.739,14.435v361.426c0,7.587-6.42,14.241-13.739,14.241H89.24
		c-7.319,0-13.739-6.654-13.739-14.241V104.655c0-7.689,6.42-14.435,13.739-14.435h32.618V58.043H89.24
		c-25.913,0-46.995,20.91-46.995,46.612v361.426c0,25.596,21.082,46.419,46.995,46.419h335.266
		c25.913,0,46.995-20.823,46.995-46.419V104.655C471.5,78.954,450.418,58.043,424.505,58.043z"/>
	<path d="M146.191,115.5h217.235c3.907,0,7.074-3.165,7.074-7.07V50.57c0-3.905-3.167-7.07-7.074-7.07h-57.594
		C302.037,19.134,280.914,0.426,255.5,0.426S208.962,19.134,205.168,43.5h-58.977c-3.907,0-7.074,3.165-7.074,7.07v57.86
		C139.117,112.335,142.284,115.5,146.191,115.5z M255.5,16.407c16.569,0,30.476,11.594,34.056,27.093h-68.111
		C225.024,28.001,238.929,16.407,255.5,16.407z"/>
	<path d="M100.649,181.716c0,16.253,13.223,29.476,29.477,29.476c16.253,0,29.476-13.223,29.476-29.476
		s-13.223-29.476-29.476-29.476C113.872,152.24,100.649,165.463,100.649,181.716z"/>
	<rect x="186.5" y="164.5" width="227" height="35"/>
	<path d="M130.125,291.1c16.253,0,29.476-13.223,29.476-29.476s-13.223-29.476-29.476-29.476c-16.253,0-29.477,13.223-29.477,29.476
		S113.872,291.1,130.125,291.1z"/>
	<rect x="186.5" y="245.5" width="227" height="35"/>
	<path d="M130.125,312.055c-16.254,0-29.478,13.224-29.478,29.477s13.224,29.477,29.478,29.477
		c16.253,0,29.477-13.224,29.477-29.477S146.379,312.055,130.125,312.055z"/>
	<rect x="186.5" y="323.5" width="227" height="36"/>
	<path d="M130.125,391.962c-16.253,0-29.477,13.224-29.477,29.479c0,16.253,13.223,29.476,29.477,29.476
		c16.253,0,29.476-13.223,29.476-29.476C159.601,405.186,146.378,391.962,130.125,391.962z"/>
	<rect x="186.5" y="404.5" width="227" height="35"/>
</g>
</svg>
