<?xml version="1.0" encoding="utf-8"?>
<!-- Generator: Adobe Illustrator 15.0.0, SVG Export Plug-In . SVG Version: 6.00 Build 0)  -->
<!DOCTYPE svg PUBLIC "-//W3C//DTD SVG 1.1//EN" "http://www.w3.org/Graphics/SVG/1.1/DTD/svg11.dtd">
<svg version="1.1" id="Layer_1" xmlns="http://www.w3.org/2000/svg" xmlns:xlink="http://www.w3.org/1999/xlink" x="0px" y="0px"
	 width="512px" height="512px" viewBox="144 44 512 512" enable-background="new 144 44 512 512" xml:space="preserve">
<title></title>
<g>
	<path d="M591.203,44H304.398c-4.508,0-8.831,1.791-12.018,4.978l-95.602,95.602c-3.188,3.187-4.978,7.51-4.978,12.018v382.406
		c0,9.387,7.609,16.996,16.996,16.996h382.406c9.387,0,16.996-7.609,16.996-16.996V60.996C608.199,51.609,600.59,44,591.203,44z
		 M287.402,102.027v37.574h-37.574L287.402,102.027z M574.207,522.008H225.792V173.593h78.606c9.387,0,16.996-7.609,16.996-16.996
		V77.992h252.813V522.008z"/>
	<rect x="272.531" y="267.07" width="254.938" height="33.992"/>
	<rect x="272.531" y="346.738" width="254.938" height="33.992"/>
	<rect x="272.531" y="426.406" width="254.938" height="33.992"/>
</g>
</svg>
