<?xml version="1.0" encoding="utf-8"?>
<!-- Generator: Adobe Illustrator 15.0.0, SVG Export Plug-In . SVG Version: 6.00 Build 0)  -->
<!DOCTYPE svg PUBLIC "-//W3C//DTD SVG 1.1//EN" "http://www.w3.org/Graphics/SVG/1.1/DTD/svg11.dtd">
<svg version="1.1" id="Layer_1" xmlns="http://www.w3.org/2000/svg" xmlns:xlink="http://www.w3.org/1999/xlink" x="0px" y="0px"
	 width="512px" height="512px" viewBox="-10.24 -10.24 512 512" enable-background="new -10.24 -10.24 512 512"
	 xml:space="preserve">
<g>
	<path d="M109.317,274.19l-75.242-75.242l75.243-75.242c7.158-7.158,7.158-18.806,0-25.963c-3.468-3.468-8.078-5.378-12.982-5.378
		s-9.514,1.91-12.981,5.378l-88.099,88.1l-0.126,0.122c-7.159,7.159-7.159,18.807,0,25.965l88.225,88.223
		c3.467,3.468,8.078,5.377,12.981,5.377s9.514-1.909,12.982-5.377c3.467-3.468,5.377-8.077,5.377-12.981
		C114.694,282.268,112.785,277.657,109.317,274.19z"/>
	<path d="M469.521,211.803c-20.787-20.789-48.332-32.238-77.557-32.238H150.727l56.222-56.222c7.074-7.075,7.074-18.588,0-25.662
		c-3.428-3.428-7.984-5.315-12.832-5.315s-9.404,1.888-12.832,5.315L94.208,184.76l-0.125,0.121c-0.811,0.811-1.518,1.686-2.143,2.6
		c-0.023,0.035-0.051,0.067-0.074,0.103c-0.251,0.371-0.475,0.755-0.694,1.141c-0.077,0.136-0.163,0.266-0.237,0.402
		c-0.168,0.314-0.313,0.636-0.461,0.957c-0.107,0.229-0.221,0.451-0.318,0.685c-0.1,0.243-0.18,0.491-0.27,0.738
		c-0.118,0.322-0.24,0.642-0.34,0.972c-0.049,0.162-0.082,0.327-0.127,0.49c-0.112,0.417-0.223,0.834-0.307,1.261
		c-0.012,0.059-0.016,0.118-0.027,0.176c-0.198,1.074-0.316,2.177-0.316,3.308c0,1.126,0.117,2.224,0.314,3.293
		c0.012,0.064,0.018,0.129,0.029,0.193c0.082,0.421,0.191,0.831,0.303,1.241c0.045,0.17,0.081,0.342,0.132,0.511
		c0.097,0.323,0.217,0.635,0.331,0.949c0.092,0.255,0.176,0.511,0.279,0.762c0.094,0.224,0.203,0.438,0.305,0.657
		c0.152,0.33,0.302,0.662,0.475,0.984c0.068,0.125,0.146,0.243,0.216,0.366c0.227,0.398,0.458,0.794,0.718,1.179
		c0.01,0.015,0.021,0.029,0.032,0.045c0.634,0.934,1.354,1.825,2.181,2.652l87.203,87.199c3.428,3.428,7.984,5.314,12.832,5.314
		s9.404-1.887,12.832-5.314c3.426-3.428,5.314-7.982,5.314-12.83s-1.889-9.404-5.316-12.83l-56.222-56.224h241.24
		c19.533,0,37.963,7.672,51.895,21.605c13.934,13.931,21.605,32.36,21.605,51.894s-7.672,37.963-21.605,51.896
		c-13.932,13.932-32.361,21.604-51.895,21.604H286.779c-10.006,0-18.146,8.141-18.146,18.148c0,10.006,8.141,18.146,18.146,18.146
		h105.186c29.225,0,56.77-11.447,77.557-32.238c20.791-20.787,32.238-48.332,32.238-77.557S490.313,232.592,469.521,211.803z"/>
</g>
</svg>
