<?xml version="1.0" encoding="utf-8"?>
<!-- Generator: Adobe Illustrator 15.0.0, SVG Export Plug-In . SVG Version: 6.00 Build 0)  -->
<!DOCTYPE svg PUBLIC "-//W3C//DTD SVG 1.1//EN" "http://www.w3.org/Graphics/SVG/1.1/DTD/svg11.dtd">
<svg version="1.1" id="Layer_1" xmlns="http://www.w3.org/2000/svg" xmlns:xlink="http://www.w3.org/1999/xlink" x="0px" y="0px"
	 width="512px" height="512px" viewBox="0 0 512 512" enable-background="new 0 0 512 512" xml:space="preserve">
<title></title>
<path d="M256,507.206c-3.771,0-7.539-1.215-10.688-3.642c-7.812-6.024-191.688-148.701-224.229-250.224
	c-9.874-30.808-13.613-62.77-10.813-92.432c2.896-30.662,12.729-58.25,28.439-79.782C62.815,48.092,98.764,30.63,142.674,30.63
	c59.663,0,92.214,32.647,109.015,60.034c2.05,3.342,3.916,6.685,5.609,9.983c1.974-3.489,4.138-7.029,6.511-10.571
	c26.049-38.89,64.266-59.446,110.518-59.446c40.846,0,74.427,15.896,97.112,45.969c16.044,21.267,26.149,49.385,29.225,81.315
	c2.891,30-0.425,62.813-9.586,94.891c-12.383,43.36-54.217,98.943-124.339,165.204c-51.192,48.375-98.186,84.14-100.159,85.638
	C263.45,506.021,259.725,507.206,256,507.206z"/>
</svg>
