<?xml version="1.0" encoding="utf-8"?>
<!-- Generator: Adobe Illustrator 15.0.0, SVG Export Plug-In . SVG Version: 6.00 Build 0)  -->
<!DOCTYPE svg PUBLIC "-//W3C//DTD SVG 1.1//EN" "http://www.w3.org/Graphics/SVG/1.1/DTD/svg11.dtd">
<svg version="1.1" id="Layer_1" xmlns="http://www.w3.org/2000/svg" xmlns:xlink="http://www.w3.org/1999/xlink" x="0px" y="0px"
	 width="512px" height="512px" viewBox="0 0 512 512" enable-background="new 0 0 512 512" xml:space="preserve">
<title></title>
<g>
	<path d="M103.947,115.5h217.235c3.907,0,7.074-3.165,7.074-7.07V50.57c0-3.905-3.167-7.07-7.074-7.07h-57.594
		c-3.795-24.366-24.918-43.074-50.332-43.074S166.718,19.134,162.924,43.5h-58.977c-3.907,0-7.074,3.165-7.074,7.07v57.86
		C96.873,112.335,100.04,115.5,103.947,115.5z M213.256,16.407c16.569,0,30.476,11.594,34.056,27.093H179.2
		C182.78,28.001,196.685,16.407,213.256,16.407z"/>
	<path d="M58.405,181.716c0,16.253,13.223,29.476,29.477,29.476c16.253,0,29.476-13.223,29.476-29.476s-13.223-29.476-29.476-29.476
		C71.628,152.24,58.405,165.463,58.405,181.716z"/>
	<path d="M87.881,291.1c16.253,0,29.476-13.223,29.476-29.476s-13.223-29.476-29.476-29.476c-16.253,0-29.477,13.223-29.477,29.476
		S71.628,291.1,87.881,291.1z"/>
	<path d="M87.881,312.055c-16.254,0-29.478,13.224-29.478,29.477s13.224,29.477,29.478,29.477c16.253,0,29.477-13.224,29.477-29.477
		S104.135,312.055,87.881,312.055z"/>
	<path d="M87.881,391.962c-16.253,0-29.477,13.224-29.477,29.479c0,16.253,13.223,29.476,29.477,29.476
		c16.253,0,29.476-13.223,29.476-29.476C117.357,405.186,104.134,391.962,87.881,391.962z"/>
	<path d="M511.5,292.25c0-58.472-33.463-109.275-82.244-134.266v-53.329c0-25.702-21.082-46.612-46.995-46.612h-38.005v32.177
		h38.005c7.319,0,13.739,6.745,13.739,14.435v41.017c-11.313-2.721-23.114-4.172-35.25-4.172c-29.346,0-56.753,8.437-79.941,23
		H144.256v35h97.735c-10.683,13.648-19.06,29.179-24.561,46h-73.174v35h66.2c-0.301,3.878-0.456,7.796-0.456,11.75
		c0,10.712,1.131,21.164,3.266,31.25h-69.01v36h81.604c8.561,17.101,20.275,32.356,34.381,45H144.256v35h184.172
		c10.417,2.285,21.229,3.5,32.322,3.5c12.136,0,23.938-1.451,35.25-4.172v27.253c0,7.587-6.42,14.241-13.739,14.241H46.995
		c-7.319,0-13.739-6.654-13.739-14.241V104.655c0-7.689,6.42-14.435,13.739-14.435h32.618V58.043H46.995
		C21.082,58.043,0,78.954,0,104.655v361.426C0,491.677,21.082,512.5,46.995,512.5h335.266c25.913,0,46.995-20.823,46.995-46.419
		v-39.565C478.037,401.525,511.5,350.723,511.5,292.25z M360.75,414c-55.636,0-102.674-37.512-117.154-88.571
		c-0.161-0.644-0.338-1.281-0.49-1.929h-0.033c-2.652-9.977-4.073-20.45-4.073-31.25c0-3.964,0.197-7.882,0.569-11.75h0.44
		c0.616-7.206,1.803-14.247,3.494-21.09c14.368-51.232,61.488-88.91,117.246-88.91c67.133,0,121.75,54.617,121.75,121.75
		C482.5,359.383,427.883,414,360.75,414z"/>
	<polygon points="430.277,237.607 332.059,320.369 295.849,277.397 272.867,296.768 328.447,362.721 449.646,260.588 	"/>
</g>
</svg>
