<?xml version="1.0" encoding="utf-8"?>
<!-- Generator: Adobe Illustrator 15.0.0, SVG Export Plug-In . SVG Version: 6.00 Build 0)  -->
<!DOCTYPE svg PUBLIC "-//W3C//DTD SVG 1.1//EN" "http://www.w3.org/Graphics/SVG/1.1/DTD/svg11.dtd">
<svg version="1.1"
	 id="svg2" xmlns:sodipodi="http://sodipodi.sourceforge.net/DTD/sodipodi-0.dtd" xmlns:svg="http://www.w3.org/2000/svg" xmlns:dc="http://purl.org/dc/elements/1.1/" xmlns:inkscape="http://www.inkscape.org/namespaces/inkscape" xmlns:cc="http://creativecommons.org/ns#" xmlns:rdf="http://www.w3.org/1999/02/22-rdf-syntax-ns#"
	 xmlns="http://www.w3.org/2000/svg" xmlns:xlink="http://www.w3.org/1999/xlink" x="0px" y="0px" width="512px" height="512px"
	 viewBox="0 0 512 512" enable-background="new 0 0 512 512" xml:space="preserve">
<g id="g3016" transform="matrix(-1,0,0,1,502.69953,6.6120369e-6)">
</g>
<path d="M509.208,389.389l-26.188-15.116c27.183-52.168,35.583-112.52,23.645-170.167c-11.994-57.917-43.999-110.245-90.118-147.345
	C371.045,20.158,314.069,0,256.116,0h-0.479c-17.238,0.032-34.571,1.828-51.517,5.337C65.914,33.958-23.237,169.696,5.388,307.919
	c11.994,57.916,44,110.239,90.121,147.333C141.01,491.847,197.986,512,255.942,512c17.361,0,34.854-1.8,51.99-5.349
	c0.516-0.107,0.968-0.414,1.257-0.854c0.288-0.44,0.392-0.978,0.283-1.492l-7.17-34.569c-0.223-1.073-1.277-1.765-2.345-1.54
	c-14.628,3.029-29.547,4.564-44.343,4.565c-0.006,0-0.007,0-0.014,0c-101.961,0-191.021-72.68-211.759-172.817
	C19.611,182.933,95.088,68.023,212.096,43.792c14.632-3.03,29.551-4.566,44.342-4.566c101.971,0,191.034,72.682,211.772,172.819
	c9.985,48.22,3.149,98.771-19.238,142.58l-22.36-12.933c-0.582-0.336-1.296-0.356-1.896-0.049c-0.599,0.305-1.003,0.894-1.071,1.563
	l-11.989,116.137c-0.08,0.778,0.304,1.531,0.981,1.923c0.678,0.39,1.521,0.348,2.155-0.111l94.588-68.44
	c0.544-0.394,0.853-1.037,0.817-1.709C510.163,390.334,509.79,389.726,509.208,389.389z"/>
</svg>
