<?xml version="1.0" encoding="utf-8"?>
<!-- Generator: Adobe Illustrator 15.0.0, SVG Export Plug-In . SVG Version: 6.00 Build 0)  -->
<!DOCTYPE svg PUBLIC "-//W3C//DTD SVG 1.1//EN" "http://www.w3.org/Graphics/SVG/1.1/DTD/svg11.dtd">
<svg version="1.1" id="Layer_1" xmlns="http://www.w3.org/2000/svg" xmlns:xlink="http://www.w3.org/1999/xlink" x="0px" y="0px"
	 width="512px" height="512px" viewBox="0 0 512 512" enable-background="new 0 0 512 512" xml:space="preserve">
<title></title>
<polygon points="305.964,403.321 163.322,260.679 191.606,232.394 305.964,346.752 477.318,175.398 505.604,203.682 "/>
<path d="M382.407,373.878v104.13H33.992V129.593h78.606c9.387,0,16.996-7.609,16.996-16.996V33.992h252.813v190.064l33.991-33.991
	V16.996C416.398,7.609,408.79,0,399.402,0H112.599c-4.508,0-8.832,1.791-12.019,4.978L4.978,100.58C1.79,103.767,0,108.09,0,112.598
	v382.406C0,504.391,7.609,512,16.996,512h382.406c9.387,0,16.996-7.609,16.996-16.996V339.887L382.407,373.878z M95.603,58.027
	v37.574H58.028L95.603,58.027z"/>
</svg>
