<?xml version="1.0" encoding="utf-8"?>
<!-- Generator: Adobe Illustrator 15.0.0, SVG Export Plug-In . SVG Version: 6.00 Build 0)  -->
<!DOCTYPE svg PUBLIC "-//W3C//DTD SVG 1.1//EN" "http://www.w3.org/Graphics/SVG/1.1/DTD/svg11.dtd">
<svg version="1.1" id="Layer_1" xmlns="http://www.w3.org/2000/svg" xmlns:xlink="http://www.w3.org/1999/xlink" x="0px" y="0px"
	 width="512px" height="512px" viewBox="144 44 512 512" enable-background="new 144 44 512 512" xml:space="preserve">
<title></title>
<g>
	<path d="M384.798,482.87c2.879,5.758,8.764,9.396,15.202,9.396c6.438,0,12.323-3.638,15.201-9.396l47.802-95.602
		c1.18-2.359,1.794-4.962,1.794-7.601V60.996c0-9.387-7.609-16.996-16.996-16.996h-95.602c-9.387,0-16.996,7.609-16.996,16.996
		v318.672c0,2.639,0.614,5.241,1.794,7.601L384.798,482.87z M400,437.266l-30.805-61.61V157.66h61.61v217.996L400,437.266z
		 M430.805,77.992v45.676h-61.61V77.992H430.805z"/>
	<path d="M639.004,235.203H527.469v33.992h94.539v252.813H177.992V269.195h94.54v-33.992H160.996
		c-9.386,0-16.996,7.61-16.996,16.996v286.805c0,9.387,7.609,16.996,16.996,16.996h478.008c9.387,0,16.996-7.609,16.996-16.996
		V252.199C656,242.813,648.391,235.203,639.004,235.203z"/>
</g>
</svg>
