<?xml version="1.0" encoding="utf-8"?>
<!-- Generator: Adobe Illustrator 15.0.0, SVG Export Plug-In . SVG Version: 6.00 Build 0)  -->
<!DOCTYPE svg PUBLIC "-//W3C//DTD SVG 1.1//EN" "http://www.w3.org/Graphics/SVG/1.1/DTD/svg11.dtd">
<svg version="1.1" id="Layer_1" xmlns="http://www.w3.org/2000/svg" xmlns:xlink="http://www.w3.org/1999/xlink" x="0px" y="0px"
	 width="512px" height="512px" viewBox="0 0 512 512" enable-background="new 0 0 512 512" xml:space="preserve">
<title></title>
<path d="M495.003,95.602H257.062V16.996C257.062,7.61,249.454,0,240.065,0H16.996C7.609,0,0,7.61,0,16.996v95.602v350.538
	c0,9.388,7.609,16.996,16.996,16.996h478.008c9.388,0,16.996-7.609,16.996-16.996V112.597
	C511.999,103.211,504.39,95.602,495.003,95.602z M223.069,33.991v61.61H33.991v-61.61H223.069z M478.007,446.139H33.991V129.593
	h444.016V446.139z"/>
<path d="M388.535,259.516c-14.464-14.467-33.635-22.434-53.98-22.434h-159.15l28.034-28.033c6.55-6.551,6.55-17.21-0.001-23.763
	c-3.174-3.173-7.394-4.921-11.881-4.921c-4.487,0-8.706,1.748-11.882,4.921l-56.594,56.596l-0.121,0.119
	c-0.704,0.702-1.361,1.496-1.957,2.36c-0.029,0.041-0.059,0.083-0.087,0.126h0c-0.241,0.355-0.461,0.723-0.655,1.065
	c-0.068,0.112-0.136,0.226-0.23,0.399c-0.14,0.263-0.267,0.531-0.391,0.801l4.505,2.171l-4.578-2.016
	c-0.089,0.186-0.175,0.372-0.255,0.566c-0.077,0.188-0.146,0.379-0.213,0.571l-0.042,0.117c-0.109,0.292-0.214,0.584-0.293,0.847
	c-0.049,0.16-0.091,0.322-0.128,0.477c-0.104,0.383-0.202,0.768-0.29,1.21c-0.015,0.077-0.027,0.153-0.039,0.23
	c-0.18,1-0.271,1.996-0.271,2.961c0,0.954,0.09,1.94,0.271,2.955c0.003,0.023,0.007,0.047,0.009,0.06
	c0.011,0.072,0.023,0.145,0.038,0.217c0.078,0.394,0.175,0.777,0.275,1.146c0.037,0.15,0.075,0.301,0.124,0.467
	c0.076,0.253,0.164,0.501,0.254,0.747l0.083,0.232c0.073,0.207,0.148,0.413,0.24,0.633c0.072,0.171,0.149,0.338,0.229,0.503
	l0.089,0.189c0.125,0.271,0.253,0.54,0.381,0.777c0.076,0.143,0.157,0.281,0.208,0.361c0.21,0.371,0.428,0.739,0.669,1.098
	c0.022,0.033,0.05,0.073,0.079,0.112c0.595,0.868,1.258,1.67,1.973,2.385l56.717,56.713c3.173,3.175,7.393,4.924,11.883,4.924
	c4.488,0,8.708-1.748,11.881-4.922c3.174-3.173,4.921-7.393,4.921-11.881c0-4.49-1.749-8.71-4.922-11.879l-28.034-28.036h159.153
	c11.369,0,22.101,4.471,30.219,12.589c8.117,8.115,12.587,18.848,12.587,30.218s-4.471,22.103-12.587,30.219
	c-8.117,8.117-18.85,12.587-30.219,12.587h-48.253c-9.265,0-16.803,7.538-16.803,16.805c0,9.265,7.538,16.802,16.803,16.802h48.253
	c20.346,0,39.517-7.967,53.979-22.432c14.467-14.461,22.434-33.633,22.434-53.981C410.968,293.149,403.001,273.979,388.535,259.516z
	"/>
</svg>
