<?xml version="1.0" encoding="utf-8"?>
<!-- Generator: Adobe Illustrator 15.0.0, SVG Export Plug-In . SVG Version: 6.00 Build 0)  -->
<!DOCTYPE svg PUBLIC "-//W3C//DTD SVG 1.1//EN" "http://www.w3.org/Graphics/SVG/1.1/DTD/svg11.dtd">
<svg version="1.1" id="Layer_1" xmlns="http://www.w3.org/2000/svg" xmlns:xlink="http://www.w3.org/1999/xlink" x="0px" y="0px"
	 width="512px" height="512px" viewBox="0 0 512 512" enable-background="new 0 0 512 512" xml:space="preserve">
<title></title>
<path d="M493.22,0H18.78C8.408,0,0,8.408,0,18.78v474.44C0,503.592,8.408,512,18.78,512h474.44c10.372,0,18.78-8.408,18.78-18.78
	V18.78C512,8.408,503.592,0,493.22,0z M474.44,37.56v88.958H37.56V37.56H474.44z M37.56,474.44V164.077h436.88V474.44H37.56z"/>
<g>
	<path d="M173.651,297.826h27.987c13.026,0,22.411-3.229,28.153-9.688c5.739-6.458,8.611-15.593,8.611-27.407
		c0-11.593-3.092-20.562-9.274-26.911c-6.184-6.348-15.292-9.522-27.325-9.522c-10.93,0-19.847,3.121-26.745,9.356
		c-6.901,6.239-10.351,14.437-10.351,24.593h-38.752l-0.331-0.993c-0.662-18.437,6.21-33.921,20.618-46.453
		c14.408-12.529,32.762-18.796,55.064-18.796c23.516,0,42.284,5.962,56.306,17.886c14.02,11.923,21.032,28.873,21.032,50.841
		c0,10.268-3.146,20.204-9.439,29.809c-6.293,9.605-15.235,17.058-26.828,22.357c13.688,4.859,23.765,12.255,30.223,22.191
		c6.459,9.937,9.688,21.254,9.688,33.949c0,22.082-7.592,39.442-22.771,52.083c-15.182,12.644-34.586,18.962-58.211,18.962
		c-22.303,0-41.045-5.934-56.224-17.803c-15.182-11.866-22.439-28.29-21.777-49.268l0.331-0.994h38.752
		c0,10.661,3.587,19.288,10.765,25.882c7.176,6.593,16.727,9.89,28.649,9.89c12.476,0,22.301-3.358,29.479-10.081
		c7.176-6.721,10.765-16.251,10.765-28.588c0-13.552-3.286-23.55-9.854-29.996c-6.57-6.442-16.755-9.667-30.555-9.667h-27.987
		V297.826z"/>
	<path d="M388.735,436.604h-40.242V233.736h-49.02v-29.644l89.262-8.611V436.604z"/>
</g>
</svg>
