<?xml version="1.0" encoding="utf-8"?>
<!-- Generator: Adobe Illustrator 15.0.0, SVG Export Plug-In . SVG Version: 6.00 Build 0)  -->
<!DOCTYPE svg PUBLIC "-//W3C//DTD SVG 1.1//EN" "http://www.w3.org/Graphics/SVG/1.1/DTD/svg11.dtd">
<svg version="1.1" id="Layer_1" xmlns:sketch="http://www.bohemiancoding.com/sketch/ns"
	 xmlns="http://www.w3.org/2000/svg" xmlns:xlink="http://www.w3.org/1999/xlink" x="0px" y="0px" width="512px" height="512px"
	 viewBox="0 0 512 512" enable-background="new 0 0 512 512" xml:space="preserve">
<path d="M511.203,199.742c-2.368-7.824-9.579-13.175-17.755-13.175H336.402L273.224,28.623c-2.817-7.043-9.638-11.661-17.223-11.661
	s-14.406,4.618-17.226,11.661l-63.178,157.944H18.552c-8.174,0-15.385,5.351-17.754,13.175c-2.369,7.824,0.662,16.276,7.464,20.811
	l140.122,93.415l-62.252,155.63c-3.018,7.545-0.774,16.176,5.536,21.295c6.309,5.121,15.217,5.535,21.978,1.029l142.355-94.902
	l142.355,94.902c3.127,2.085,6.712,3.116,10.288,3.116c4.155,0,8.297-1.394,11.689-4.146c6.31-5.119,8.554-13.75,5.536-21.295
	l-62.252-155.63l140.12-93.415C510.54,216.018,513.572,207.566,511.203,199.742z"/>
</svg>
