<?xml version="1.0" encoding="utf-8"?>
<!-- Generator: Adobe Illustrator 15.0.0, SVG Export Plug-In . SVG Version: 6.00 Build 0)  -->
<!DOCTYPE svg PUBLIC "-//W3C//DTD SVG 1.1//EN" "http://www.w3.org/Graphics/SVG/1.1/DTD/svg11.dtd">
<svg version="1.1" id="Layer_1" xmlns="http://www.w3.org/2000/svg" xmlns:xlink="http://www.w3.org/1999/xlink" x="0px" y="0px"
	 width="512px" height="512px" viewBox="0 0 512 512" enable-background="new 0 0 512 512" xml:space="preserve">
<title></title>
<path d="M474.038,72.679H37.962C17.029,72.679,0,89.708,0,110.641v290.717c0,20.933,17.029,37.962,37.962,37.962h436.076
	c20.933,0,37.962-17.029,37.962-37.962V110.641C512,89.708,494.971,72.679,474.038,72.679z M334.713,237.658l142.895-110.439
	v253.426L334.713,237.658z M204.661,258.936l40.746,31.536c2.991,2.302,6.716,3.569,10.49,3.569c3.773,0,7.499-1.268,10.492-3.571
	l40.94-31.544l146.003,146.002H58.669L204.661,258.936z M256,255.071L64.561,107.072H447.44L256,255.071z M177.287,237.658
	L34.393,380.645V127.219L177.287,237.658z"/>
</svg>
