<?xml version="1.0" encoding="utf-8"?>
<!-- Generator: Adobe Illustrator 15.0.0, SVG Export Plug-In . SVG Version: 6.00 Build 0)  -->
<!DOCTYPE svg PUBLIC "-//W3C//DTD SVG 1.1//EN" "http://www.w3.org/Graphics/SVG/1.1/DTD/svg11.dtd">
<svg version="1.1"
	 id="svg2439" xmlns:cc="http://creativecommons.org/ns#" xmlns:sodipodi="http://sodipodi.sourceforge.net/DTD/sodipodi-0.dtd" xmlns:svg="http://www.w3.org/2000/svg" xmlns:inkscape="http://www.inkscape.org/namespaces/inkscape" xmlns:dc="http://purl.org/dc/elements/1.1/" xmlns:rdf="http://www.w3.org/1999/02/22-rdf-syntax-ns#"
	 xmlns="http://www.w3.org/2000/svg" xmlns:xlink="http://www.w3.org/1999/xlink" x="0px" y="0px" width="512px" height="512px"
	 viewBox="0 0 512 512" enable-background="new 0 0 512 512" xml:space="preserve">
<path d="M482.656,227.965c-5.352-12.528-18.342-22.318-34.462-25.917c-3.023-44.303-23.787-85.551-58.706-116.461
	c-35.804-31.695-82.764-49.15-132.228-49.15c-49.958,0-97.254,17.756-133.175,49.998c-35.035,31.446-55.508,73.257-57.897,118.064
	c-15.766,3.024-28.666,11.715-34.913,23.479c-0.28-0.021-0.56-0.032-0.84-0.032c-16.585,0-30.079,13.492-30.079,30.076v82.246
	c0,16.521,13.374,29.974,29.859,30.091c7.045,16.116,25.858,26.71,48.125,26.71c28.622,0,51.042-17.719,51.042-40.339V243.655
	c0-19.024-16.372-35.069-39.46-39.259c5.074-81.198,77.81-144.262,167.338-144.262c87.777,0,160.375,61.695,167.13,141.17
	c-23.727,3.674-41.147,20.128-41.147,39.529v113.094c0,17.531,14.603,33.069,35.377,38.378
	c-7.549,16.966-28.847,35.493-85.283,37.449c-5.49-14.435-21.846-24.598-40.314-24.598c-23.314,0-42.282,15.796-42.282,35.212
	c0,19.407,18.967,35.195,42.282,35.195c17.311,0,32.597-8.735,39.022-22.008c35.972-0.991,64.063-8.398,83.531-22.031
	c13.805-9.667,23.358-22.719,27.769-37.885c16.975-2.297,30.97-10.962,37.72-23.291c0.166,0.007,0.334,0.012,0.501,0.012
	c16.585,0,30.078-13.5,30.078-30.093v-82.246C511.644,241.803,498.737,228.542,482.656,227.965z M485.359,345.406v-92.506
	c1.57,1.161,2.59,3.024,2.59,5.121v82.246C487.949,342.371,486.93,344.24,485.359,345.406z M406.941,353.927V240.833
	c0-8.851,12.791-16.613,27.373-16.613c14.569,0,27.35,7.763,27.35,16.613v113.094c0,8.862-12.78,16.637-27.35,16.637
	C419.732,370.564,406.941,362.789,406.941,353.927z M50.979,243.655c0-8.866,12.786-16.644,27.362-16.644
	c14.568,0,27.348,7.777,27.348,16.644V356.73c0,8.863-12.779,16.639-27.348,16.639c-14.576,0-27.362-7.775-27.362-16.639V243.655z
	 M27.282,252.484v93.34c-1.926-1.101-3.227-3.179-3.227-5.556v-82.246C24.055,255.653,25.356,253.581,27.282,252.484z
	 M293.022,428.861c10.638,0,18.587,6.075,18.587,11.508c0,5.426-7.949,11.493-18.587,11.493s-18.586-6.067-18.586-11.493
	C274.437,434.936,282.385,428.861,293.022,428.861z"/>
</svg>
