<?xml version="1.0" encoding="utf-8"?>
<!-- Generator: Adobe Illustrator 15.0.0, SVG Export Plug-In . SVG Version: 6.00 Build 0)  -->
<!DOCTYPE svg PUBLIC "-//W3C//DTD SVG 1.1//EN" "http://www.w3.org/Graphics/SVG/1.1/DTD/svg11.dtd">
<svg version="1.1" id="Layer_1" xmlns="http://www.w3.org/2000/svg" xmlns:xlink="http://www.w3.org/1999/xlink" x="0px" y="0px"
	 width="512px" height="512px" viewBox="1744 744 512 512" enable-background="new 1744 744 512 512" xml:space="preserve">
<title></title>
<g id="_70-Menu">
	<g>
		<path d="M1856.299,872.798h-95.8c-9.112,0-16.499-7.387-16.499-16.499v-95.8c0-9.112,7.387-16.499,16.499-16.499h95.8
			c9.112,0,16.499,7.387,16.499,16.499v95.8C1872.798,865.412,1865.412,872.798,1856.299,872.798z M1776.998,839.8h62.802v-62.802
			h-62.802V839.8z"/>
	</g>
	<g>
		<path d="M2239.501,872.798H2143.7c-9.112,0-16.499-7.387-16.499-16.499v-95.8c0-9.112,7.387-16.499,16.499-16.499h95.801
			c9.112,0,16.499,7.387,16.499,16.499v95.8C2256,865.412,2248.613,872.798,2239.501,872.798z M2160.199,839.8h62.803v-62.802
			h-62.803V839.8z"/>
	</g>
	<g>
		<path d="M2047.9,872.798H1952.1c-9.112,0-16.499-7.387-16.499-16.499v-95.8c0-9.112,7.387-16.499,16.499-16.499h95.801
			c9.112,0,16.499,7.387,16.499,16.499v95.8C2064.399,865.412,2057.013,872.798,2047.9,872.798z M1968.599,839.8h62.802v-62.802
			h-62.802V839.8z"/>
	</g>
	<g>
		<path d="M1856.299,1064.399h-95.8c-9.112,0-16.499-7.387-16.499-16.499V952.1c0-9.112,7.387-16.499,16.499-16.499h95.8
			c9.112,0,16.499,7.387,16.499,16.499v95.801C1872.798,1057.013,1865.412,1064.399,1856.299,1064.399z M1776.998,1031.401h62.802
			v-62.802h-62.802V1031.401z"/>
	</g>
	<g>
		<path d="M1856.299,1256h-95.8c-9.112,0-16.499-7.387-16.499-16.499V1143.7c0-9.112,7.387-16.499,16.499-16.499h95.8
			c9.112,0,16.499,7.387,16.499,16.499v95.801C1872.798,1248.613,1865.412,1256,1856.299,1256z M1776.998,1223.002h62.802v-62.803
			h-62.802V1223.002z"/>
	</g>
	<g>
		<path d="M2239.501,1256H2143.7c-9.112,0-16.499-7.387-16.499-16.499V1143.7c0-9.112,7.387-16.499,16.499-16.499h95.801
			c9.112,0,16.499,7.387,16.499,16.499v95.801C2256,1248.613,2248.613,1256,2239.501,1256z M2160.199,1223.002h62.803v-62.803
			h-62.803V1223.002z"/>
	</g>
	<g>
		<path d="M2239.501,1064.399H2143.7c-9.112,0-16.499-7.387-16.499-16.499V952.1c0-9.112,7.387-16.499,16.499-16.499h95.801
			c9.112,0,16.499,7.387,16.499,16.499v95.801C2256,1057.013,2248.613,1064.399,2239.501,1064.399z M2160.199,1031.401h62.803
			v-62.802h-62.803V1031.401z"/>
	</g>
	<g>
		<path d="M2047.9,1064.399H1952.1c-9.112,0-16.499-7.387-16.499-16.499V952.1c0-9.112,7.387-16.499,16.499-16.499h95.801
			c9.112,0,16.499,7.387,16.499,16.499v95.801C2064.399,1057.013,2057.013,1064.399,2047.9,1064.399z M1968.599,1031.401h62.802
			v-62.802h-62.802V1031.401z"/>
	</g>
	<g>
		<path d="M2047.9,1256H1952.1c-9.112,0-16.499-7.387-16.499-16.499V1143.7c0-9.112,7.387-16.499,16.499-16.499h95.801
			c9.112,0,16.499,7.387,16.499,16.499v95.801C2064.399,1248.613,2057.013,1256,2047.9,1256z M1968.599,1223.002h62.802v-62.803
			h-62.802V1223.002z"/>
	</g>
</g>
</svg>
