<?xml version="1.0" encoding="utf-8"?>
<!-- Generator: Adobe Illustrator 15.0.0, SVG Export Plug-In . SVG Version: 6.00 Build 0)  -->
<!DOCTYPE svg PUBLIC "-//W3C//DTD SVG 1.1//EN" "http://www.w3.org/Graphics/SVG/1.1/DTD/svg11.dtd">
<svg version="1.1"
	 id="svg2439" xmlns:cc="http://creativecommons.org/ns#" xmlns:sodipodi="http://sodipodi.sourceforge.net/DTD/sodipodi-0.dtd" xmlns:svg="http://www.w3.org/2000/svg" xmlns:inkscape="http://www.inkscape.org/namespaces/inkscape" xmlns:dc="http://purl.org/dc/elements/1.1/" xmlns:rdf="http://www.w3.org/1999/02/22-rdf-syntax-ns#"
	 xmlns="http://www.w3.org/2000/svg" xmlns:xlink="http://www.w3.org/1999/xlink" x="0px" y="0px" width="512px" height="512px"
	 viewBox="0 0 512 512" enable-background="new 0 0 512 512" xml:space="preserve">
<path fill="#1D1D1B" d="M264.611,42.314c15.585,0,31.457,1.72,47.328,5.297C427.29,73.594,499.786,188.266,473.787,303.685
	c-22.431,99.529-110.848,167.136-208.775,167.136c-15.588,0-31.442-1.717-47.296-5.289c-35.915-8.061-67.655-24.748-93.557-47.297
	l-77.535,26.401c-2.653,0.909-4.94,1.344-6.775,1.344c-6.293,0-7.578-5.023-2.474-13.094l42.926-67.555
	c-26.736-45.293-36.982-100.498-24.465-155.854C78.263,109.928,166.649,42.314,264.611,42.314 M264.611,8.135
	c-116.838,0-216.386,79.703-242.122,193.823c-12.383,54.871-5.872,111.571,18.292,161.854L8.54,414.563
	c-13.417,21.119-8.079,37.616-3.721,45.572c6.891,12.537,19.992,20.022,35.029,20.022c5.673,0,11.664-1.066,17.839-3.179
	l59.779-20.359c27.536,20.25,59.245,34.738,92.774,42.264c17.989,4.057,36.43,6.117,54.771,6.117
	c114.981,0,216.802-81.508,242.118-193.808c14.586-64.719,3.088-131.257-32.376-187.347c-35.446-56.09-90.619-95-155.304-109.575
	C301.409,10.205,282.953,8.135,264.611,8.135"/>
<path fill="#1D1D1B" d="M183.937,256.573c0,18.689-15.187,33.843-33.877,33.843c-18.725,0-33.914-15.153-33.914-33.843
	c0-18.708,15.189-33.879,33.914-33.879C168.75,222.694,183.937,237.865,183.937,256.573"/>
<path fill="#1D1D1B" d="M299.356,256.573c0,18.689-15.154,33.843-33.911,33.843c-18.69,0-33.844-15.153-33.844-33.843
	c0-18.708,15.153-33.879,33.844-33.879C284.202,222.694,299.356,237.865,299.356,256.573"/>
<path fill="#1D1D1B" d="M414.743,256.573c0,18.689-15.121,33.843-33.846,33.843c-18.724,0-33.877-15.153-33.877-33.843
	c0-18.708,15.153-33.879,33.877-33.879C399.622,222.694,414.743,237.865,414.743,256.573"/>
</svg>
