<?xml version="1.0" encoding="utf-8"?>
<!-- Generator: Adobe Illustrator 15.0.0, SVG Export Plug-In . SVG Version: 6.00 Build 0)  -->
<!DOCTYPE svg PUBLIC "-//W3C//DTD SVG 1.1//EN" "http://www.w3.org/Graphics/SVG/1.1/DTD/svg11.dtd">
<svg version="1.1" id="Layer_1" xmlns="http://www.w3.org/2000/svg" xmlns:xlink="http://www.w3.org/1999/xlink" x="0px" y="0px"
	 width="512px" height="512px" viewBox="41.64 164.945 512 512" enable-background="new 41.64 164.945 512 512"
	 xml:space="preserve">
<title></title>
<g id="_46-Lock">
	<g>
		<path d="M506.311,676.945H88.969V322.71h417.342V676.945z M127.675,638.239h339.93V361.416h-339.93V638.239z"/>
	</g>
	<g>
		<path d="M206.557,342.063h-38.706V200.075c0-19.37,15.759-35.129,35.129-35.129h94.659v38.706h-91.082V342.063z"/>
	</g>
	<g>
		<path d="M427.429,342.063h-38.706V203.651h-91.084v-38.706h94.659c19.371,0,35.131,15.759,35.131,35.129V342.063z"/>
	</g>
	<g>
		<path d="M297.639,534.957c-36.769,0-66.683-29.913-66.683-66.682s29.914-66.683,66.683-66.683
			c36.77,0,66.684,29.914,66.684,66.683S334.408,534.957,297.639,534.957z M297.639,440.299c-15.426,0-27.977,12.551-27.977,27.977
			s12.551,27.976,27.977,27.976c15.427,0,27.978-12.55,27.978-27.976S313.066,440.299,297.639,440.299z"/>
	</g>
	<g>
		<rect x="278.286" y="515.604" width="38.706" height="78.882"/>
	</g>
</g>
</svg>
