<?xml version="1.0" encoding="utf-8"?>
<!-- Generator: Adobe Illustrator 15.0.0, SVG Export Plug-In . SVG Version: 6.00 Build 0)  -->
<!DOCTYPE svg PUBLIC "-//W3C//DTD SVG 1.1//EN" "http://www.w3.org/Graphics/SVG/1.1/DTD/svg11.dtd">
<svg version="1.1" id="Layer_1" xmlns="http://www.w3.org/2000/svg" xmlns:xlink="http://www.w3.org/1999/xlink" x="0px" y="0px"
	 width="512px" height="512px" viewBox="-192 -192 512 512" enable-background="new -192 -192 512 512" xml:space="preserve">
<path d="M319.921,59.349l-0.042-0.369c-0.046-0.4-0.107-0.797-0.188-1.219c-0.021-0.11-0.04-0.221-0.066-0.344
	c-0.102-0.47-0.219-0.933-0.357-1.384c-0.038-0.122-0.079-0.243-0.129-0.386c-0.11-0.329-0.229-0.655-0.35-0.954
	c-0.073-0.182-0.148-0.362-0.229-0.546c-0.136-0.304-0.28-0.603-0.438-0.908c-0.064-0.132-0.131-0.263-0.194-0.377
	c-0.217-0.395-0.452-0.778-0.691-1.141c-0.08-0.122-0.165-0.242-0.298-0.43c-0.184-0.261-0.374-0.517-0.633-0.842
	c-0.084-0.105-0.168-0.21-0.255-0.313c-0.297-0.352-0.605-0.694-0.891-0.98c-0.047-0.048-0.076-0.076-0.125-0.123
	c-0.32-0.316-0.653-0.617-0.994-0.904l-0.33-0.27c-0.287-0.229-0.581-0.449-0.908-0.678c-0.099-0.069-0.197-0.139-0.288-0.199
	c-0.403-0.268-0.817-0.522-1.277-0.772c-0.038-0.021-0.095-0.05-0.146-0.075c-0.281-0.15-0.568-0.296-0.872-0.436L-168.308-172.63
	c-2.199-1.005-4.538-1.515-6.953-1.515c-4.238,0-8.283,1.588-11.393,4.477c-4.964,4.619-6.652,11.712-4.299,18.068l78.708,212.608
	l-78.759,218.738c-2.179,6.068-0.643,12.936,3.921,17.504c0.194,0.193,0.393,0.38,0.614,0.573c3.081,2.786,7.061,4.319,11.215,4.32
	c0,0,0.001,0,0.001,0c2.476,0,4.868-0.536,7.103-1.589l478.537-224.49c0.139-0.066,0.274-0.136,0.408-0.207l0.109-0.057
	c0.168-0.085,0.336-0.171,0.487-0.255c0.378-0.21,0.746-0.433,1.094-0.663c0.159-0.105,0.313-0.216,0.543-0.383
	c0.206-0.147,0.408-0.298,0.607-0.455c0.182-0.144,0.36-0.291,0.524-0.432c0.199-0.171,0.392-0.348,0.582-0.527
	c0.004-0.004,0.076-0.071,0.079-0.074c0.131-0.121,0.259-0.243,0.383-0.369c0.294-0.3,0.577-0.612,0.837-0.921
	c0.127-0.148,0.248-0.303,0.416-0.52c0.157-0.202,0.31-0.405,0.457-0.612c0.133-0.187,0.263-0.376,0.38-0.557
	c0.153-0.235,0.297-0.476,0.447-0.733c0.139-0.238,0.272-0.479,0.387-0.703c0.16-0.31,0.313-0.622,0.458-0.951
	c0.071-0.162,0.137-0.326,0.229-0.559c0.107-0.271,0.208-0.548,0.326-0.895c0.053-0.155,0.104-0.311,0.15-0.465
	c0.135-0.449,0.253-0.903,0.348-1.354c0.022-0.109,0.043-0.219,0.06-0.318c0.075-0.396,0.136-0.798,0.183-1.201
	c0.018-0.146,0.032-0.293,0.045-0.431c0.035-0.404,0.06-0.812,0.066-1.241c0.005-0.086,0.007-0.173,0.007-0.261
	c0-0.011,0-0.022,0-0.034c0-0.02,0-0.039,0-0.056C319.997,60.367,319.972,59.884,319.921,59.349z M228.208,77.656l-374.055,175.477
	l63.176-175.468L228.208,77.656z M-82.787,44.197l-62.812-169.683L226.282,44.193L-82.787,44.197z"/>
</svg>
