<?xml version="1.0" encoding="utf-8"?>
<!-- Generator: Adobe Illustrator 15.0.0, SVG Export Plug-In . SVG Version: 6.00 Build 0)  -->
<!DOCTYPE svg PUBLIC "-//W3C//DTD SVG 1.1//EN" "http://www.w3.org/Graphics/SVG/1.1/DTD/svg11.dtd">
<svg version="1.1" id="Layer_1" xmlns="http://www.w3.org/2000/svg" xmlns:xlink="http://www.w3.org/1999/xlink" x="0px" y="0px"
	 width="512px" height="512px" viewBox="0 0 512 512" enable-background="new 0 0 512 512" xml:space="preserve">
<path d="M455.463,273.767c-10.553-14.593-24.627-25.751-40.984-32.564c12.395-13.912,19.391-32.066,19.391-50.773
	c0-42.09-34.244-76.333-76.336-76.333c-42.09,0-76.334,34.243-76.334,76.333c0,18.707,6.996,36.861,19.389,50.773
	c-4.047,1.685-7.951,3.638-11.699,5.841c-0.553-0.807-1.1-1.617-1.676-2.413c-12.27-16.964-28.631-29.937-47.646-37.858
	c14.407-16.173,22.54-37.278,22.54-59.025c0-48.933-39.81-88.742-88.743-88.742c-48.933,0-88.742,39.81-88.742,88.742
	c0,21.747,8.133,42.853,22.539,59.025c-19.016,7.921-35.377,20.895-47.646,37.858c-13.927,19.253-21.287,41.901-21.287,65.496
	v142.87h203.066H308.5h165.273V330.104C473.773,309.808,467.443,290.327,455.463,273.767z M173.363,97.305
	c27.813,0,50.44,22.628,50.44,50.441s-22.628,50.44-50.44,50.44c-27.813,0-50.44-22.627-50.44-50.44S145.55,97.305,173.363,97.305z
	 M270.199,414.695h-28.906H76.528V310.126c0-40.604,33.033-73.638,73.638-73.638h46.396c27.089,0,50.792,14.714,63.581,36.559
	c6.381,10.898,10.057,23.564,10.057,37.079V414.695z M357.533,147.042c23.922,0,43.387,19.464,43.387,43.388
	c0,23.924-19.465,43.387-43.387,43.387c-23.924,0-43.387-19.463-43.387-43.387C314.146,166.505,333.609,147.042,357.533,147.042z
	 M440.828,420.051H308.5V310.126c0-11.419-1.74-22.611-5.098-33.309c9.867-6.352,21.596-10.055,34.178-10.055h39.908
	c34.926,0,63.34,28.414,63.34,63.341V420.051z"/>
</svg>
