<?xml version="1.0" encoding="utf-8"?>
<!-- Generator: Adobe Illustrator 15.0.0, SVG Export Plug-In . SVG Version: 6.00 Build 0)  -->
<!DOCTYPE svg PUBLIC "-//W3C//DTD SVG 1.1//EN" "http://www.w3.org/Graphics/SVG/1.1/DTD/svg11.dtd">
<svg version="1.1" id="Layer_1" xmlns="http://www.w3.org/2000/svg" xmlns:xlink="http://www.w3.org/1999/xlink" x="0px" y="0px"
	 width="512px" height="512px" viewBox="0 0 512 512" enable-background="new 0 0 512 512" xml:space="preserve">
<title></title>
<path d="M420.105,389.391c13.105-19.236,20.281-42.428,20.281-65.786c0-31.194-12.147-60.521-34.204-82.576
	c-22.057-22.058-51.384-34.206-82.578-34.206c-31.193,0-60.52,12.147-82.578,34.204c-22.057,22.058-34.204,51.384-34.204,82.578
	s12.147,60.52,34.204,82.577c22.058,22.057,51.384,34.204,82.578,34.204c23.358,0,46.55-7.176,65.786-20.28L481.285,512L512,481.286
	L420.105,389.391z M323.604,396.948c-40.442,0-73.345-32.902-73.345-73.345s32.902-73.345,73.345-73.345
	s73.345,32.902,73.345,73.345S364.046,396.948,323.604,396.948z"/>
<path d="M386,0H119.599c-5.835,0-11.431,2.318-15.556,6.444L6.444,104.042C2.318,108.168,0,113.764,0,119.599v362
	c0,12.15,9.85,22,22,22h191.5v-44H44v-295.29h108c12.15,0,22-9.85,22-22V44.71c0-0.238-0.01-0.474-0.018-0.71H364v125.5h44V22
	C408,9.85,398.151,0,386,0z M130,44.71v75.599H52.403L128.712,44h1.307C130.01,44.236,130,44.472,130,44.71z"/>
</svg>
