<?xml version="1.0" encoding="utf-8"?>
<!-- Generator: Adobe Illustrator 15.0.0, SVG Export Plug-In . SVG Version: 6.00 Build 0)  -->
<!DOCTYPE svg PUBLIC "-//W3C//DTD SVG 1.1//EN" "http://www.w3.org/Graphics/SVG/1.1/DTD/svg11.dtd">
<svg version="1.1" id="Layer_1" xmlns="http://www.w3.org/2000/svg" xmlns:xlink="http://www.w3.org/1999/xlink" x="0px" y="0px"
	 width="512px" height="512px" viewBox="0 0 512 512" enable-background="new 0 0 512 512" xml:space="preserve">
<title></title>
<path d="M411.906,201.788c3.394-12.999,5.206-26.629,5.206-40.676C417.112,72.274,344.838,0,256,0
	C167.163,0,94.888,72.274,94.888,161.112c0,14.047,1.812,27.678,5.206,40.676C41.425,225.887,0,283.636,0,350.888
	C0,439.726,72.274,512,161.112,512c35.449,0,68.253-11.518,94.888-30.993C282.634,500.482,315.439,512,350.888,512
	C439.726,512,512,439.726,512,350.888C512,283.636,470.575,225.887,411.906,201.788z M132.448,161.112
	C132.448,92.985,187.873,37.56,256,37.56c68.126,0,123.552,55.425,123.552,123.552c0,10.551-1.332,20.796-3.832,30.579
	c-8.097-1.258-16.389-1.915-24.832-1.915c-35.448,0-68.254,11.517-94.888,30.994c-26.635-19.477-59.439-30.994-94.888-30.994
	c-8.443,0-16.735,0.657-24.832,1.915C133.78,181.908,132.448,171.663,132.448,161.112z M284.664,350.888
	c0,30.036-10.778,57.6-28.664,79.037c-17.886-21.438-28.664-49.001-28.664-79.037c0-10.551,1.332-20.795,3.833-30.578
	c8.096,1.258,16.389,1.914,24.832,1.914c8.443,0,16.735-0.656,24.832-1.914C283.332,330.093,284.664,340.337,284.664,350.888z
	 M256,284.664c-3.081,0-6.135-0.117-9.16-0.34c2.794-4.353,5.858-8.516,9.16-12.473c3.302,3.957,6.366,8.12,9.16,12.473
	C262.135,284.547,259.081,284.664,256,284.664z M208.679,275.236c-23.396-9.737-43.182-26.462-56.728-47.561
	c3.025-0.223,6.079-0.34,9.16-0.34c24.577,0,47.499,7.215,66.764,19.636C220.526,255.657,214.079,265.125,208.679,275.236z
	 M284.125,246.972c19.265-12.42,42.187-19.636,66.763-19.636c3.081,0,6.136,0.117,9.16,0.34
	c-13.545,21.099-33.331,37.823-56.728,47.561C297.921,265.125,291.473,255.657,284.125,246.972z M37.56,350.888
	c0-51.371,31.519-95.515,76.231-114.124c17.614,32.976,46.361,59.141,81.19,73.447c-3.394,12.999-5.206,26.63-5.206,40.677
	c0,39.569,14.347,75.843,38.1,103.917c-19.265,12.42-42.187,19.636-66.764,19.636C92.985,474.44,37.56,419.015,37.56,350.888z
	 M350.888,474.44c-24.576,0-47.498-7.216-66.763-19.636c23.752-28.074,38.099-64.349,38.099-103.917
	c0-14.047-1.812-27.678-5.205-40.677c34.83-14.306,63.577-40.471,81.19-73.447c44.712,18.608,76.231,62.752,76.231,114.124
	C474.44,419.015,419.015,474.44,350.888,474.44z"/>
</svg>
