<?xml version="1.0" encoding="utf-8"?>
<!-- Generator: Adobe Illustrator 15.0.0, SVG Export Plug-In . SVG Version: 6.00 Build 0)  -->
<!DOCTYPE svg PUBLIC "-//W3C//DTD SVG 1.1//EN" "http://www.w3.org/Graphics/SVG/1.1/DTD/svg11.dtd">
<svg version="1.1" id="Layer_1" xmlns="http://www.w3.org/2000/svg" xmlns:xlink="http://www.w3.org/1999/xlink" x="0px" y="0px"
	 width="512px" height="512px" viewBox="144 44 512 512" enable-background="new 144 44 512 512" xml:space="preserve">
<title></title>
<g>
	<path d="M639.004,44H160.996C151.609,44,144,51.609,144,60.996v478.008c0,9.387,7.609,16.996,16.996,16.996h478.008
		c9.387,0,16.996-7.609,16.996-16.996V60.996C656,51.609,648.391,44,639.004,44z M622.008,77.992v93.477H177.992V77.992H622.008z
		 M177.992,522.008V205.46h444.016v316.547H177.992z"/>
	<path d="M304.398,235.203h-63.734c-9.387,0-16.996,7.609-16.996,16.996v63.734c0,9.387,7.609,16.996,16.996,16.996h63.734
		c9.387,0,16.996-7.609,16.996-16.996v-63.734C321.394,242.813,313.785,235.203,304.398,235.203z M287.402,298.938H257.66v-29.743
		h29.743V298.938z"/>
	<path d="M559.336,235.203h-63.734c-9.387,0-16.996,7.609-16.996,16.996v63.734c0,9.387,7.609,16.996,16.996,16.996h63.734
		c9.387,0,16.996-7.609,16.996-16.996v-63.734C576.332,242.813,568.723,235.203,559.336,235.203z M542.34,298.938h-29.742v-29.743
		h29.742V298.938z"/>
	<path d="M431.867,235.203h-63.734c-9.387,0-16.996,7.609-16.996,16.996v63.734c0,9.387,7.609,16.996,16.996,16.996h63.734
		c9.387,0,16.996-7.609,16.996-16.996v-63.734C448.863,242.813,441.254,235.203,431.867,235.203z M414.871,298.938h-29.743v-29.743
		h29.743V298.938z"/>
	<path d="M304.398,378.605h-63.734c-9.387,0-16.996,7.609-16.996,16.996v63.734c0,9.387,7.609,16.996,16.996,16.996h63.734
		c9.387,0,16.996-7.609,16.996-16.996v-63.734C321.394,386.215,313.785,378.605,304.398,378.605z M287.402,442.34H257.66v-29.742
		h29.743V442.34z"/>
	<path d="M559.336,378.605h-63.734c-9.387,0-16.996,7.609-16.996,16.996v63.734c0,9.387,7.609,16.996,16.996,16.996h63.734
		c9.387,0,16.996-7.609,16.996-16.996v-63.734C576.332,386.215,568.723,378.605,559.336,378.605z M542.34,442.34h-29.742v-29.742
		h29.742V442.34z"/>
	<path d="M431.867,378.605h-63.734c-9.387,0-16.996,7.609-16.996,16.996v63.734c0,9.387,7.609,16.996,16.996,16.996h63.734
		c9.387,0,16.996-7.609,16.996-16.996v-63.734C448.863,386.215,441.254,378.605,431.867,378.605z M414.871,442.34h-29.743v-29.742
		h29.743V442.34z"/>
</g>
</svg>
