<?xml version="1.0" encoding="utf-8"?>
<!-- Generator: Adobe Illustrator 15.0.0, SVG Export Plug-In . SVG Version: 6.00 Build 0)  -->
<!DOCTYPE svg PUBLIC "-//W3C//DTD SVG 1.1//EN" "http://www.w3.org/Graphics/SVG/1.1/DTD/svg11.dtd">
<svg version="1.1" id="Layer_1" xmlns="http://www.w3.org/2000/svg" xmlns:xlink="http://www.w3.org/1999/xlink" x="0px" y="0px"
	 width="512px" height="512px" viewBox="0 0 512 512" enable-background="new 0 0 512 512" xml:space="preserve">
<title></title>
<path d="M439.914,72.668L326.311,14.852c-8.364-4.257-18.598-0.928-22.855,7.438l-173.446,340.81
	c-1.521,2.99-2.124,6.364-1.732,9.696l13.439,114.11c0.667,5.643,4.106,10.581,9.172,13.159s11.082,2.452,16.035-0.331
	l100.164-56.296c2.926-1.644,5.298-4.116,6.82-7.107L447.353,95.524C451.61,87.157,448.279,76.925,439.914,72.668z M409.349,95.254
	l-27.943,54.908l-83.31-42.398l27.944-54.907L409.349,95.254z M172.494,457.612l-9.857-83.68l120.042-235.875l83.31,42.398
	L245.946,416.33L172.494,457.612z"/>
</svg>
