<?xml version="1.0" encoding="utf-8"?>
<!-- Generator: Adobe Illustrator 15.0.0, SVG Export Plug-In . SVG Version: 6.00 Build 0)  -->
<!DOCTYPE svg PUBLIC "-//W3C//DTD SVG 1.1//EN" "http://www.w3.org/Graphics/SVG/1.1/DTD/svg11.dtd">
<svg version="1.1" id="Layer_1" xmlns="http://www.w3.org/2000/svg" xmlns:xlink="http://www.w3.org/1999/xlink" x="0px" y="0px"
	 width="512px" height="512px" viewBox="0 0 512 512" enable-background="new 0 0 512 512" xml:space="preserve">
<path d="M445.196,512.926c-2.257,0-4.299-0.088-6.243-0.268c-0.103-0.01-0.207-0.02-0.311-0.031
	c-75.811-8.229-149.718-34.514-213.727-76.012c-59.418-37.771-110.803-89.154-148.606-148.609
	C34.672,223.718,8.395,149.483,0.308,73.311c-0.011-0.099-0.02-0.199-0.029-0.298C-1.334,55.196,4.09,37.816,15.551,24.076
	S43.136,1.885,60.951,0.279c2.034-0.183,4.046-0.276,5.98-0.276L138.779,0c33.176,0,61.686,24.769,66.317,57.614
	c0.007,0.055,0.015,0.11,0.022,0.166c2.823,21.357,8.074,42.423,15.604,62.615c9.158,24.351,3.24,52.091-15.095,70.623
	c-0.024,0.025-0.048,0.049-0.073,0.074l-19.55,19.549c29.146,46.709,68.632,86.195,115.34,115.342l19.539-19.539
	c0.024-0.023,0.049-0.049,0.072-0.072c12.623-12.49,29.363-19.369,47.137-19.369c8.051,0,15.96,1.434,23.509,4.26
	c20.096,7.525,41.161,12.781,62.617,15.619c0.049,0.006,0.098,0.012,0.146,0.02c33.609,4.703,58.337,33.785,57.619,67.707v71.156
	c0.129,36.871-29.801,67.027-66.719,67.162C445.242,512.926,445.22,512.926,445.196,512.926z M442.648,474.059
	c0.711,0.061,1.536,0.09,2.518,0.09c15.52-0.078,28.098-12.771,28.042-28.316v-71.445c0-0.162,0.002-0.324,0.006-0.486
	c0.358-14.301-10.026-26.582-24.164-28.59c-24.333-3.225-48.234-9.191-71.045-17.736c-3.182-1.191-6.519-1.795-9.911-1.795
	c-7.478,0-14.519,2.885-19.829,8.123l-30.169,30.168c-6.172,6.172-15.707,7.457-23.295,3.143
	c-62.563-35.584-114.442-87.463-150.027-150.027c-4.315-7.587-3.028-17.123,3.144-23.294l30.178-30.178
	c7.692-7.801,10.172-19.46,6.314-29.717c-8.557-22.941-14.513-46.824-17.72-71.037c-1.979-13.791-13.966-24.182-27.911-24.182
	l-0.28,0.001c-0.063,0-0.125,0.001-0.188,0.001H66.931c-0.775,0-1.616,0.04-2.498,0.12c-7.496,0.676-14.281,4.233-19.105,10.017
	c-4.798,5.751-7.083,13.017-6.442,20.471c7.47,70.113,31.679,138.44,70.015,197.612c0.031,0.047,0.061,0.094,0.091,0.141
	c34.791,54.736,82.094,102.039,136.795,136.797c0.051,0.033,0.102,0.064,0.152,0.098
	C304.852,442.244,372.87,466.457,442.648,474.059z"/>
</svg>
