<?xml version="1.0" encoding="utf-8"?>
<!-- Generator: Adobe Illustrator 15.0.0, SVG Export Plug-In . SVG Version: 6.00 Build 0)  -->
<!DOCTYPE svg PUBLIC "-//W3C//DTD SVG 1.1//EN" "http://www.w3.org/Graphics/SVG/1.1/DTD/svg11.dtd">
<svg version="1.1" id="icon" xmlns="http://www.w3.org/2000/svg" xmlns:xlink="http://www.w3.org/1999/xlink" x="0px" y="0px"
	 width="512px" height="512px" viewBox="41.64 164.945 512 512" enable-background="new 41.64 164.945 512 512"
	 xml:space="preserve">
<path d="M534.656,485.681H475.68v-72.652c0-10.468-8.516-18.984-18.982-18.984H316.625V356.21h95.232
	c10.469,0,18.984-8.516,18.984-18.983V194.451c0-10.467-8.516-18.983-18.984-18.983H183.423c-10.467,0-18.983,8.516-18.983,18.983
	v142.776c0,10.467,8.516,18.983,18.983,18.983h95.235v37.834H138.584c-10.467,0-18.983,8.516-18.983,18.984v72.652H60.623
	c-10.467,0-18.983,8.516-18.983,18.983v142.774c0,10.469,8.516,18.984,18.983,18.984h155.923c10.467,0,18.982-8.516,18.982-18.984
	V504.664c0-10.468-8.516-18.983-18.982-18.983h-58.979v-53.67h280.146v53.67h-58.978c-10.467,0-18.982,8.516-18.982,18.983v142.774
	c0,10.469,8.516,18.984,18.982,18.984h155.921c10.468,0,18.983-8.516,18.983-18.984V504.664
	C553.64,494.196,545.124,485.681,534.656,485.681z M79.607,628.456V523.647h117.955v104.809H79.607z M392.875,213.434v104.81
	H202.406v-104.81H392.875z M397.72,628.456V523.647h117.953v104.809H397.72z"/>
</svg>
